<svg width="512" height="512" viewBox="0 0 512 512" fill="none" xmlns="http://www.w3.org/2000/svg">
<rect width="512" height="512" fill="#1E263C"/>
<rect width="360" height="360" transform="translate(76 76)" fill="#1E263C"/>
<path d="M410.812 285.274C427.482 303.033 422.94 328.843 421.937 337.562" stroke="#A12568" stroke-width="8"/>
<path d="M100.951 285.151C84.5495 303.159 88.9291 326.046 90.0624 334.75" stroke="#FEC260" stroke-width="8"/>
<path d="M121 317.875C233.38 363.393 292.398 362.354 391 317.875" stroke="url(#paint0_linear_204_994)" stroke-width="15" stroke-linecap="round"/>
<path d="M145.941 285.835C136.536 285.835 131.834 280.99 131.834 271.3V147.966C131.834 138.276 136.679 133.431 146.369 133.431H220.967C228.377 133.431 232.082 136.994 232.082 144.119C232.082 151.529 228.377 155.234 220.967 155.234H159.194V197.77H216.479C223.889 197.77 227.594 201.332 227.594 208.457C227.594 215.867 223.889 219.572 216.479 219.572H159.194V271.3C159.194 280.99 154.776 285.835 145.941 285.835ZM328.234 286.262C318.687 286.262 309.353 285.194 300.233 283.056C291.255 280.919 283.418 277.712 276.72 273.437C273.443 271.3 271.448 268.664 270.735 265.529C270.023 262.394 270.237 259.472 271.377 256.765C272.659 253.915 274.583 251.991 277.148 250.994C279.856 249.854 282.919 250.352 286.339 252.49C292.609 256.195 299.235 258.902 306.218 260.612C313.201 262.322 320.539 263.177 328.234 263.177C339.492 263.177 347.685 261.325 352.815 257.62C357.945 253.772 360.51 248.856 360.51 242.871C360.51 237.884 358.658 233.965 354.953 231.115C351.39 228.265 345.192 225.914 336.357 224.061L312.844 219.145C286.054 213.445 272.659 199.694 272.659 177.891C272.659 168.486 275.153 160.292 280.14 153.31C285.128 146.328 292.039 140.912 300.874 137.065C309.709 133.217 319.898 131.294 331.44 131.294C339.99 131.294 348.113 132.362 355.808 134.5C363.503 136.637 370.414 139.772 376.542 143.905C379.392 145.9 381.102 148.394 381.672 151.386C382.242 154.236 381.885 156.944 380.603 159.509C379.32 161.931 377.254 163.641 374.404 164.639C371.697 165.494 368.49 164.852 364.785 162.715C359.513 159.722 354.169 157.585 348.754 156.302C343.339 155.02 337.497 154.379 331.227 154.379C321.394 154.379 313.699 156.445 308.142 160.577C302.584 164.71 299.805 170.125 299.805 176.822C299.805 181.952 301.515 186.085 304.935 189.22C308.355 192.212 314.198 194.564 322.463 196.274L345.762 201.19C359.869 204.182 370.343 208.885 377.183 215.297C384.166 221.71 387.657 230.26 387.657 240.947C387.657 249.925 385.234 257.834 380.389 264.674C375.544 271.514 368.633 276.857 359.655 280.705C350.821 284.41 340.347 286.262 328.234 286.262Z" fill="white"/>
<defs>
<linearGradient id="paint0_linear_204_994" x1="106.465" y1="309.002" x2="445.919" y2="408.263" gradientUnits="userSpaceOnUse">
<stop stop-color="#FEC260"/>
<stop offset="1" stop-color="#A12568"/>
</linearGradient>
</defs>
</svg>
