<svg width="50" height="50" viewBox="0 0 50 50" fill="none" xmlns="http://www.w3.org/2000/svg">
<g clip-path="url(#clip0_2_34)">
<path d="M45.5414 5.30544C45.1206 5.04799 44.6594 4.85021 44.1693 4.72415C44.0432 4.23411 43.8455 3.77284 43.588 3.35212C43.2746 2.83984 42.5404 2.83984 42.227 3.35212C41.9694 3.77284 41.7717 4.23421 41.6456 4.72415C41.1556 4.85031 40.6944 5.04799 40.2735 5.30544C39.7613 5.61892 39.7613 6.35292 40.2735 6.66651C40.6943 6.92395 41.1555 7.12174 41.6456 7.2479C41.7717 7.73784 41.9694 8.1992 42.2269 8.61993C42.5403 9.1322 43.2744 9.1322 43.5879 8.61993C43.8454 8.1992 44.0431 7.73794 44.1692 7.2479C44.6592 7.12174 45.1205 6.92405 45.5413 6.66651C46.0536 6.35292 46.0536 5.61892 45.5414 5.30544Z" fill="#FCE3A0"/>
<path d="M50 25C50 35.7846 43.1711 44.9743 33.6016 48.4809C30.9197 49.4636 28.0224 50 25 50C11.1929 50 0 38.8071 0 25C0 11.1929 11.1929 0 25 0C28.0203 0 30.9155 0.535614 33.5959 1.517C43.1684 5.02193 50 14.2132 50 25Z" fill="#FFCE71"/>
<path d="M17.2032 25C17.2032 14.2154 24.0263 5.02354 33.5958 1.517C30.9139 0.534205 28.0225 0 25 0C11.1929 0 0 11.1929 0 25C0 38.8071 11.1929 50 25 50C28.0225 50 30.9197 49.4637 33.6016 48.4809C24.0321 44.9743 17.2032 35.7846 17.2032 25Z" fill="#FFB357"/>
<path d="M17.1166 26.0733C17.1102 28.1006 15.0412 29.7376 12.4954 29.7297C9.94957 29.7216 7.89092 28.0717 7.89726 26.0443C7.9036 24.0169 9.97261 22.3798 12.5185 22.3878C15.0643 22.3958 17.1229 24.0458 17.1166 26.0733Z" fill="#FF8E9E"/>
<path d="M32.8832 26.1226C32.8769 28.15 34.9355 29.8 37.4814 29.808C40.0273 29.8159 42.0962 28.1789 42.1026 26.1515C42.1089 24.1241 40.0502 22.4741 37.5044 22.4661C34.9586 22.4581 32.8896 24.0952 32.8832 26.1226Z" fill="#FF8E9E"/>
<path d="M28.7254 23.2891C28.7326 20.9922 27.0693 20.7711 25.0167 20.7647C22.9642 20.7583 21.2995 20.9688 21.2924 23.2657C21.2852 25.5625 22.9433 27.4297 24.9959 27.4361C27.0484 27.4426 28.7181 25.5858 28.7254 23.2891Z" fill="#4C5659"/>
<path d="M15.2156 19.1239C15.2123 19.1239 15.2092 19.1239 15.2059 19.1239C14.4219 19.1239 13.6842 19.4281 13.1277 19.9811C12.5691 20.5362 12.26 21.2758 12.2576 22.0634C12.2563 22.4801 12.593 22.8189 13.0098 22.8202H13.0122C13.4278 22.8202 13.7653 22.4839 13.7668 22.068C13.768 21.6835 13.9189 21.3224 14.1916 21.0514C14.4643 20.7804 14.8305 20.6327 15.2109 20.633C15.5954 20.6342 15.9565 20.7851 16.2275 21.0578C16.4985 21.3306 16.6471 21.6926 16.6459 22.0771C16.6446 22.4938 16.9813 22.8326 17.3981 22.8339H17.4006C17.8162 22.8339 18.1538 22.4976 18.1551 22.0817C18.1599 20.4559 16.8413 19.1291 15.2156 19.1239Z" fill="#313D40"/>
<path d="M34.8281 19.1854C34.8249 19.1854 34.8219 19.1854 34.8188 19.1854C33.1973 19.1854 31.8754 20.5021 31.8703 22.1248C31.869 22.5415 32.2057 22.8804 32.6224 22.8817C33.0409 22.8796 33.378 22.5463 33.3794 22.1296C33.3819 21.3373 34.0271 20.6945 34.8188 20.6945H34.8233C35.6172 20.697 36.2609 21.3448 36.2584 22.1385C36.2571 22.5552 36.5938 22.8941 37.0106 22.8954H37.013C37.4286 22.8954 37.7663 22.5591 37.7676 22.1432C37.7726 20.5174 36.454 19.1906 34.8281 19.1854Z" fill="#313D40"/>
<path d="M11.8261 41.5157C11.1354 41.093 10.3781 40.7684 9.57365 40.5614C9.3665 39.7569 9.04196 38.9996 8.61932 38.3089C8.10463 37.4679 6.8995 37.4679 6.38491 38.3089C5.96218 38.9996 5.63763 39.7569 5.43049 40.5614C4.62606 40.7684 3.86892 41.093 3.17807 41.5157C2.33713 42.0304 2.33713 43.2354 3.17807 43.7501C3.86872 44.1728 4.62606 44.4974 5.43059 44.7045C5.63773 45.5089 5.96218 46.2662 6.38491 46.9569C6.8995 47.7979 8.10463 47.7979 8.61932 46.9569C9.04196 46.2662 9.3665 45.5089 9.57365 44.7045C10.3781 44.4974 11.1353 44.1728 11.8261 43.7501C12.6671 43.2354 12.6671 42.0304 11.8261 41.5157Z" fill="#FCE3A0"/>
<path d="M49.6156 46.3014C49.1949 46.0439 48.7336 45.8462 48.2436 45.7201C48.1174 45.2301 47.9198 44.7688 47.6623 44.3481C47.3488 43.8358 46.6147 43.8358 46.3012 44.3481C46.0437 44.7688 45.846 45.2302 45.7199 45.7201C45.2299 45.8463 44.7687 46.0439 44.3478 46.3014C43.8356 46.6149 43.8356 47.3489 44.3478 47.6625C44.7686 47.9199 45.2298 48.1177 45.7199 48.2438C45.846 48.7338 46.0437 49.1951 46.3011 49.6159C46.6146 50.1281 47.3486 50.1281 47.6622 49.6159C47.9197 49.1951 48.1173 48.7339 48.2435 48.2438C48.7334 48.1177 49.1948 47.92 49.6155 47.6625C50.1279 47.3489 50.1279 46.6149 49.6156 46.3014Z" fill="#FCE3A0"/>
</g>
<defs>
<clipPath id="clip0_2_34">
<rect width="50" height="50" fill="white"/>
</clipPath>
</defs>
</svg>
