<svg width="53" height="50" viewBox="0 0 53 50" fill="none" xmlns="http://www.w3.org/2000/svg">
<path d="M26.0071 50.0003C40.3704 50.0003 52.0142 43.2779 52.0142 34.9853C52.0142 26.6927 40.3704 19.9702 26.0071 19.9702C11.6438 19.9702 0 26.6927 0 34.9853C0 43.2779 11.6438 50.0003 26.0071 50.0003Z" fill="#F0F0F0"/>
<path d="M42.7414 33.1391C46.107 33.1391 48.8354 31.5641 48.8354 29.6213C48.8354 27.6785 46.107 26.1035 42.7414 26.1035C39.3758 26.1035 36.6475 27.6785 36.6475 29.6213C36.6475 31.5641 39.3758 33.1391 42.7414 33.1391Z" fill="#E0E0E0"/>
<path d="M9.3845 33.1391C12.7501 33.1391 15.4785 31.5641 15.4785 29.6213C15.4785 27.6785 12.7501 26.1035 9.3845 26.1035C6.01889 26.1035 3.29053 27.6785 3.29053 29.6213C3.29053 31.5641 6.01889 33.1391 9.3845 33.1391Z" fill="#E0E0E0"/>
<path d="M41.4897 13.2964V29.2398C41.4897 29.4307 41.6163 29.6217 41.8684 29.7683C42.3747 30.0604 43.1942 30.0604 43.6995 29.7683C43.9527 29.6217 44.0792 29.4352 44.0792 29.2398V13.2964H41.4897Z" fill="#B16668"/>
<path d="M51.3634 21.5479L43.3428 2.17773H42.2258L34.2041 21.549C34.146 21.6891 34.1197 21.8404 34.1272 21.9919C34.1347 22.1434 34.1757 22.2914 34.2473 22.4252C34.3189 22.5589 34.4193 22.6751 34.5413 22.7653C34.6632 22.8556 34.8037 22.9176 34.9525 22.947L35.0824 22.9725C35.3367 23.023 35.5624 23.1679 35.7142 23.378C35.8661 23.5881 35.9327 23.8479 35.9008 24.1051C35.8789 24.2752 35.9001 24.4481 35.9623 24.6079C36.0245 24.7677 36.1258 24.9093 36.257 25.0198C36.3882 25.1303 36.5449 25.2061 36.713 25.2403C36.881 25.2745 37.055 25.266 37.2189 25.2156L37.6153 25.0934C37.8534 25.02 38.1102 25.0359 38.3374 25.1381C38.5647 25.2403 38.7469 25.4218 38.8501 25.6486L39.2487 26.5281C39.3082 26.6592 39.3946 26.7764 39.5024 26.8719C39.6102 26.9674 39.7369 27.0391 39.8742 27.0824C40.0116 27.1257 40.1565 27.1395 40.2996 27.123C40.4426 27.1065 40.5806 27.0601 40.7045 26.9867L42.2591 26.0639C42.4174 25.9701 42.598 25.9206 42.7821 25.9206C42.9661 25.9206 43.1468 25.9701 43.3051 26.0639L44.8597 26.9867C44.9836 27.0601 45.1215 27.1065 45.2646 27.123C45.4077 27.1395 45.5526 27.1257 45.6899 27.0824C45.8273 27.0391 45.954 26.9674 46.0617 26.8719C46.1695 26.7764 46.256 26.6592 46.3154 26.5281L46.7152 25.6486C46.8183 25.4218 47.0006 25.2403 47.2278 25.1381C47.4551 25.0359 47.7118 25.02 47.95 25.0934L48.3464 25.2156C48.5103 25.2657 48.6841 25.274 48.852 25.2397C49.0199 25.2054 49.1766 25.1295 49.3077 25.0191C49.4387 24.9087 49.5401 24.7672 49.6024 24.6075C49.6647 24.4479 49.686 24.2752 49.6644 24.1051C49.6322 23.848 49.6986 23.5882 49.8503 23.3781C50.0019 23.1679 50.2275 23.023 50.4817 22.9725L50.6138 22.9459C50.7629 22.9168 50.9036 22.855 51.0258 22.7649C51.148 22.6747 51.2486 22.5585 51.3204 22.4247C51.3921 22.2909 51.4332 22.1428 51.4406 21.9911C51.4481 21.8395 51.4217 21.6881 51.3634 21.5479Z" fill="#BA68C8"/>
<path opacity="0.3" d="M51.3634 21.5479L43.3428 2.17773H42.2258L34.2041 21.549C34.146 21.6891 34.1197 21.8404 34.1272 21.9919C34.1347 22.1434 34.1757 22.2914 34.2473 22.4252C34.3189 22.5589 34.4193 22.6751 34.5413 22.7653C34.6632 22.8556 34.8037 22.9176 34.9525 22.947L35.0824 22.9725C35.3367 23.023 35.5624 23.1679 35.7142 23.378C35.8661 23.5881 35.9327 23.8479 35.9008 24.1051C35.8789 24.2752 35.9001 24.4481 35.9623 24.6079C36.0245 24.7677 36.1258 24.9093 36.257 25.0198C36.3882 25.1303 36.5449 25.2061 36.713 25.2403C36.881 25.2745 37.055 25.266 37.2189 25.2156L37.6153 25.0934C37.8534 25.02 38.1102 25.0359 38.3374 25.1381C38.5647 25.2403 38.7469 25.4218 38.8501 25.6486L39.2487 26.5281C39.3082 26.6592 39.3946 26.7764 39.5024 26.8719C39.6102 26.9674 39.7369 27.0391 39.8742 27.0824C40.0116 27.1257 40.1565 27.1395 40.2996 27.123C40.4426 27.1065 40.5806 27.0601 40.7045 26.9867L42.2591 26.0639C42.4174 25.9701 42.598 25.9206 42.7821 25.9206C42.9661 25.9206 43.1468 25.9701 43.3051 26.0639L44.8597 26.9867C44.9836 27.0601 45.1215 27.1065 45.2646 27.123C45.4077 27.1395 45.5526 27.1257 45.6899 27.0824C45.8273 27.0391 45.954 26.9674 46.0617 26.8719C46.1695 26.7764 46.256 26.6592 46.3154 26.5281L46.7152 25.6486C46.8183 25.4218 47.0006 25.2403 47.2278 25.1381C47.4551 25.0359 47.7118 25.02 47.95 25.0934L48.3464 25.2156C48.5103 25.2657 48.6841 25.274 48.852 25.2397C49.0199 25.2054 49.1766 25.1295 49.3077 25.0191C49.4387 24.9087 49.5401 24.7672 49.6024 24.6075C49.6647 24.4479 49.686 24.2752 49.6644 24.1051C49.6322 23.848 49.6986 23.5882 49.8503 23.3781C50.0019 23.1679 50.2275 23.023 50.4817 22.9725L50.6138 22.9459C50.7629 22.9168 50.9036 22.855 51.0258 22.7649C51.148 22.6747 51.2486 22.5585 51.3204 22.4247C51.3921 22.2909 51.4332 22.1428 51.4406 21.9911C51.4481 21.8395 51.4217 21.6881 51.3634 21.5479Z" fill="black"/>
<path opacity="0.1" d="M41.3307 4.34168L42.2268 2.30518H43.3439L44.8241 5.75524L49.6655 17.4457C49.6425 17.5687 49.5813 17.6813 49.4906 17.7674C49.3998 17.8535 49.2842 17.9088 49.1602 17.9254C48.964 17.9583 48.7878 18.0651 48.668 18.224C48.5482 18.3828 48.4939 18.5816 48.5162 18.7793L48.534 18.9281C48.5487 19.0603 48.5294 19.194 48.4777 19.3165C48.426 19.4391 48.3438 19.5463 48.2388 19.6279C48.1339 19.7096 48.0097 19.763 47.8783 19.7829C47.7468 19.8029 47.6124 19.7888 47.488 19.7421L47.0915 19.591C46.9063 19.5211 46.7014 19.5244 46.5186 19.6003C46.3358 19.6762 46.1888 19.8191 46.1077 19.9997L45.6158 21.1045C45.5709 21.2043 45.5054 21.2934 45.4237 21.3662C45.342 21.4389 45.2459 21.4935 45.1416 21.5265C45.0373 21.5596 44.9272 21.5702 44.8185 21.5577C44.7099 21.5453 44.605 21.5101 44.5109 21.4543L43.1784 20.566C43.0583 20.4946 42.9212 20.457 42.7815 20.457C42.6417 20.457 42.5046 20.4946 42.3845 20.566L40.8998 21.4543C40.8057 21.5101 40.7009 21.5453 40.5922 21.5577C40.4835 21.5702 40.3735 21.5596 40.2692 21.5265C40.1649 21.4935 40.0688 21.4389 39.987 21.3662C39.9053 21.2934 39.8399 21.2043 39.795 21.1045L39.3031 19.9997C39.222 19.8191 39.075 19.6762 38.8922 19.6003C38.7093 19.5244 38.5044 19.5211 38.3192 19.591L37.9228 19.7421C37.7984 19.7886 37.6641 19.8025 37.5328 19.7824C37.4015 19.7623 37.2776 19.7089 37.1728 19.6273C37.068 19.5456 36.9859 19.4385 36.9342 19.3161C36.8826 19.1937 36.8632 19.0601 36.8779 18.9281L36.8946 18.7804C36.9172 18.5825 36.863 18.3835 36.7432 18.2244C36.6233 18.0653 36.447 17.9583 36.2505 17.9254C36.1618 17.9135 36.077 17.8815 36.0026 17.8318C35.9281 17.7822 35.8659 17.7162 35.8208 17.6389L41.3307 4.34168Z" fill="black"/>
<path d="M49.5757 15.9158L43.3429 1.40381H42.2258L35.8376 15.9158C35.6078 16.3822 35.7388 16.9385 36.2529 17.0263C36.4494 17.0591 36.6257 17.1661 36.7456 17.3252C36.8654 17.4844 36.9196 17.6834 36.8969 17.8813L36.8803 18.029C36.8656 18.161 36.885 18.2946 36.9366 18.417C36.9882 18.5394 37.0704 18.6465 37.1752 18.7281C37.2799 18.8097 37.4039 18.8631 37.5352 18.8832C37.6665 18.9033 37.8008 18.8895 37.9252 18.8429L38.3216 18.6919C38.5069 18.622 38.712 18.6255 38.8948 18.7016C39.0777 18.7778 39.2245 18.9208 39.3054 19.1016L39.7974 20.2054C39.8423 20.3051 39.9077 20.3943 39.9894 20.467C40.0711 20.5397 40.1673 20.5944 40.2716 20.6274C40.3758 20.6604 40.4859 20.671 40.5946 20.6586C40.7033 20.6462 40.8081 20.6109 40.9022 20.5552L42.3869 19.6668C42.507 19.5955 42.6441 19.5578 42.7838 19.5578C42.9235 19.5578 43.0607 19.5955 43.1808 19.6668L44.5133 20.5552C44.6074 20.6109 44.7122 20.6462 44.8209 20.6586C44.9296 20.671 45.0397 20.6604 45.144 20.6274C45.2483 20.5944 45.3444 20.5397 45.4261 20.467C45.5078 20.3943 45.5733 20.3051 45.6182 20.2054L46.1101 19.095C46.1912 18.9144 46.3382 18.7715 46.521 18.6956C46.7038 18.6197 46.9087 18.6164 47.0939 18.6863L47.4903 18.8374C47.6148 18.8842 47.7492 18.8982 47.8807 18.8783C48.0121 18.8583 48.1363 18.8049 48.2412 18.7232C48.3462 18.6416 48.4284 18.5344 48.4801 18.4118C48.5317 18.2893 48.5511 18.1556 48.5363 18.0234L48.5186 17.8757C48.4959 17.6778 48.5501 17.4788 48.67 17.3197C48.7898 17.1606 48.9662 17.0536 49.1626 17.0207C49.6745 16.9374 49.8055 16.3822 49.5757 15.9158Z" fill="#BA68C8"/>
<path opacity="0.2" d="M49.5757 15.9158L43.3429 1.40381H42.2258L35.8376 15.9158C35.6078 16.3822 35.7388 16.9385 36.2529 17.0263C36.4494 17.0591 36.6257 17.1661 36.7456 17.3252C36.8654 17.4844 36.9196 17.6834 36.8969 17.8813L36.8803 18.029C36.8656 18.161 36.885 18.2946 36.9366 18.417C36.9882 18.5394 37.0704 18.6465 37.1752 18.7281C37.2799 18.8097 37.4039 18.8631 37.5352 18.8832C37.6665 18.9033 37.8008 18.8895 37.9252 18.8429L38.3216 18.6919C38.5069 18.622 38.712 18.6255 38.8948 18.7016C39.0777 18.7778 39.2245 18.9208 39.3054 19.1016L39.7974 20.2054C39.8423 20.3051 39.9077 20.3943 39.9894 20.467C40.0711 20.5397 40.1673 20.5944 40.2716 20.6274C40.3758 20.6604 40.4859 20.671 40.5946 20.6586C40.7033 20.6462 40.8081 20.6109 40.9022 20.5552L42.3869 19.6668C42.507 19.5955 42.6441 19.5578 42.7838 19.5578C42.9235 19.5578 43.0607 19.5955 43.1808 19.6668L44.5133 20.5552C44.6074 20.6109 44.7122 20.6462 44.8209 20.6586C44.9296 20.671 45.0397 20.6604 45.144 20.6274C45.2483 20.5944 45.3444 20.5397 45.4261 20.467C45.5078 20.3943 45.5733 20.3051 45.6182 20.2054L46.1101 19.095C46.1912 18.9144 46.3382 18.7715 46.521 18.6956C46.7038 18.6197 46.9087 18.6164 47.0939 18.6863L47.4903 18.8374C47.6148 18.8842 47.7492 18.8982 47.8807 18.8783C48.0121 18.8583 48.1363 18.8049 48.2412 18.7232C48.3462 18.6416 48.4284 18.5344 48.4801 18.4118C48.5317 18.2893 48.5511 18.1556 48.5363 18.0234L48.5186 17.8757C48.4959 17.6778 48.5501 17.4788 48.67 17.3197C48.7898 17.1606 48.9662 17.0536 49.1626 17.0207C49.6745 16.9374 49.8055 16.3822 49.5757 15.9158Z" fill="black"/>
<path opacity="0.1" d="M42.2258 1.40381H43.3429L47.8822 11.9794C47.8481 12.0099 47.8109 12.0367 47.7712 12.0594L47.7368 12.0794C47.62 12.1447 47.5246 12.2423 47.4618 12.3604C47.399 12.4786 47.3715 12.6123 47.3826 12.7456C47.3919 12.8571 47.3744 12.9691 47.3315 13.0724C47.2885 13.1756 47.2214 13.2671 47.1358 13.339C47.0501 13.4109 46.9485 13.4613 46.8393 13.4857C46.7302 13.5102 46.6168 13.5081 46.5087 13.4796L46.2377 13.4085C46.086 13.3685 45.9252 13.3808 45.7813 13.4435C45.6374 13.5061 45.5189 13.6155 45.4449 13.7539L45.0729 14.4468C44.9861 14.6089 44.8389 14.7301 44.6632 14.7842C44.4874 14.8383 44.2975 14.8208 44.1346 14.7355L43.1075 14.2025C43.0077 14.1505 42.8968 14.1234 42.7843 14.1234C42.6718 14.1234 42.561 14.1505 42.4612 14.2025L41.4352 14.7377C41.2723 14.8233 41.0823 14.841 40.9065 14.7869C40.7307 14.7328 40.5834 14.6113 40.4969 14.449L40.1249 13.7561C40.0507 13.6176 39.9319 13.5082 39.7879 13.4456C39.6438 13.3829 39.4828 13.3706 39.3309 13.4107L39.0611 13.4818C38.9529 13.5106 38.8394 13.5129 38.7302 13.4885C38.6209 13.4641 38.5192 13.4138 38.4335 13.3419C38.3477 13.2699 38.2806 13.1783 38.2378 13.0749C38.1949 12.9715 38.1776 12.8593 38.1872 12.7478C38.1981 12.6145 38.1706 12.4809 38.1078 12.3628C38.045 12.2446 37.9496 12.1471 37.833 12.0816L37.7974 12.0616C37.7245 12.02 37.6598 11.9654 37.6064 11.9006L42.2258 1.40381Z" fill="black"/>
<path d="M48.0231 10.2082L43.3382 0.359953L43.3016 0.301101C43.2496 0.209673 43.1744 0.133644 43.0835 0.0807535C42.9926 0.0278632 42.8893 0 42.7841 0C42.679 0 42.5757 0.0278632 42.4848 0.0807535C42.3939 0.133644 42.3186 0.209673 42.2667 0.301101L42.2289 0.362174L37.5452 10.2082C37.4957 10.2884 37.4629 10.3776 37.4488 10.4707C37.4347 10.5638 37.4396 10.6588 37.4631 10.75C37.4866 10.8412 37.5284 10.9267 37.5858 11.0013C37.6432 11.0759 37.7152 11.1382 37.7973 11.1843L37.8328 11.2032C37.9494 11.2687 38.0448 11.3662 38.1076 11.4844C38.1704 11.6025 38.198 11.7361 38.187 11.8694C38.1774 11.981 38.1948 12.0932 38.2377 12.1966C38.2805 12.3 38.3476 12.3916 38.4333 12.4636C38.519 12.5357 38.6207 12.5861 38.7299 12.6106C38.8391 12.6351 38.9527 12.6331 39.0609 12.6045L39.3307 12.5323C39.4826 12.4924 39.6435 12.5048 39.7876 12.5674C39.9316 12.6301 40.0503 12.7394 40.1247 12.8777L40.4967 13.5717C40.5836 13.7336 40.7309 13.8547 40.9065 13.9087C41.0822 13.9627 41.272 13.9454 41.435 13.8604L42.461 13.3241C42.5608 13.2721 42.6716 13.245 42.7841 13.245C42.8966 13.245 43.0075 13.2721 43.1073 13.3241L44.1333 13.8604C44.2963 13.9451 44.486 13.9623 44.6616 13.9083C44.8371 13.8543 44.9844 13.7334 45.0716 13.5717L45.4436 12.8777C45.5178 12.7394 45.6363 12.6302 45.7801 12.5676C45.924 12.5049 46.0847 12.4925 46.2364 12.5323L46.5074 12.6045C46.6156 12.6328 46.729 12.6347 46.8381 12.6101C46.9472 12.5854 47.0489 12.535 47.1344 12.463C47.22 12.391 47.2871 12.2995 47.3301 12.1962C47.373 12.093 47.3906 11.9809 47.3813 11.8694C47.3703 11.7361 47.3979 11.6025 47.4607 11.4844C47.5235 11.3662 47.6188 11.2687 47.7355 11.2032L47.7699 11.1843C47.8521 11.1383 47.9241 11.0761 47.9817 11.0015C48.0392 10.9269 48.081 10.8415 48.1047 10.7503C48.1283 10.6591 48.1333 10.5641 48.1193 10.4709C48.1053 10.3778 48.0725 10.2884 48.0231 10.2082Z" fill="#BA68C8"/>
<path opacity="0.1" d="M48.0231 10.2082L43.3382 0.359953L43.3016 0.301101C43.2496 0.209673 43.1744 0.133644 43.0835 0.0807535C42.9926 0.0278632 42.8893 0 42.7841 0C42.679 0 42.5757 0.0278632 42.4848 0.0807535C42.3939 0.133644 42.3186 0.209673 42.2667 0.301101L42.2289 0.362174L37.5452 10.2082C37.4957 10.2884 37.4629 10.3776 37.4488 10.4707C37.4347 10.5638 37.4396 10.6588 37.4631 10.75C37.4866 10.8412 37.5284 10.9267 37.5858 11.0013C37.6432 11.0759 37.7152 11.1382 37.7973 11.1843L37.8328 11.2032C37.9494 11.2687 38.0448 11.3662 38.1076 11.4844C38.1704 11.6025 38.198 11.7361 38.187 11.8694C38.1774 11.981 38.1948 12.0932 38.2377 12.1966C38.2805 12.3 38.3476 12.3916 38.4333 12.4636C38.519 12.5357 38.6207 12.5861 38.7299 12.6106C38.8391 12.6351 38.9527 12.6331 39.0609 12.6045L39.3307 12.5323C39.4826 12.4924 39.6435 12.5048 39.7876 12.5674C39.9316 12.6301 40.0503 12.7394 40.1247 12.8777L40.4967 13.5717C40.5836 13.7336 40.7309 13.8547 40.9065 13.9087C41.0822 13.9627 41.272 13.9454 41.435 13.8604L42.461 13.3241C42.5608 13.2721 42.6716 13.245 42.7841 13.245C42.8966 13.245 43.0075 13.2721 43.1073 13.3241L44.1333 13.8604C44.2963 13.9451 44.486 13.9623 44.6616 13.9083C44.8371 13.8543 44.9844 13.7334 45.0716 13.5717L45.4436 12.8777C45.5178 12.7394 45.6363 12.6302 45.7801 12.5676C45.924 12.5049 46.0847 12.4925 46.2364 12.5323L46.5074 12.6045C46.6156 12.6328 46.729 12.6347 46.8381 12.6101C46.9472 12.5854 47.0489 12.535 47.1344 12.463C47.22 12.391 47.2871 12.2995 47.3301 12.1962C47.373 12.093 47.3906 11.9809 47.3813 11.8694C47.3703 11.7361 47.3979 11.6025 47.4607 11.4844C47.5235 11.3662 47.6188 11.2687 47.7355 11.2032L47.7699 11.1843C47.8521 11.1383 47.9241 11.0761 47.9817 11.0015C48.0392 10.9269 48.081 10.8415 48.1047 10.7503C48.1283 10.6591 48.1333 10.5641 48.1193 10.4709C48.1053 10.3778 48.0725 10.2884 48.0231 10.2082Z" fill="black"/>
<path d="M42.159 29.7395C42.1513 29.5339 42.0642 29.3393 41.9161 29.1966C41.7679 29.0539 41.5702 28.9741 41.3645 28.9741C41.1587 28.9741 40.961 29.0539 40.8129 29.1966C40.6647 29.3393 40.5776 29.5339 40.57 29.7395C40.5685 29.7542 40.5685 29.7691 40.57 29.7839C40.5808 29.8496 40.6076 29.9116 40.6481 29.9645C40.6885 30.0174 40.7414 30.0595 40.802 30.087C40.9764 30.1752 41.1691 30.2211 41.3645 30.2211C41.5599 30.2211 41.7525 30.1752 41.9269 30.087C41.9874 30.0593 42.0402 30.0172 42.0806 29.9643C42.1211 29.9115 42.148 29.8495 42.159 29.7839C42.1605 29.7691 42.1605 29.7542 42.159 29.7395Z" fill="#37474F"/>
<path d="M41.9271 30.0871C41.9876 30.0594 42.0404 30.0173 42.0808 29.9644C42.1213 29.9116 42.1482 29.8496 42.1592 29.784C42.1607 29.7692 42.1607 29.7544 42.1592 29.7396C42.1552 29.6008 42.1149 29.4655 42.0425 29.3471C41.97 29.2286 41.8678 29.1312 41.7461 29.0645C41.7461 29.0722 42.1414 29.5641 41.8516 29.8917C41.6528 30.1138 40.9633 30.1593 40.6646 29.9805C40.7042 30.0247 40.7507 30.0622 40.8022 30.0916C40.977 30.179 41.1698 30.2242 41.3652 30.2234C41.5606 30.2226 41.7531 30.176 41.9271 30.0871Z" fill="#263238"/>
<path d="M40.8745 30.1389C40.8681 29.9944 40.8061 29.8579 40.7016 29.7579C40.597 29.6579 40.4579 29.6021 40.3132 29.6021C40.1685 29.6021 40.0294 29.6579 39.9248 29.7579C39.8203 29.8579 39.7583 29.9944 39.7519 30.1389C39.7513 30.1445 39.7513 30.1501 39.7519 30.1556C39.7514 30.1608 39.7514 30.166 39.7519 30.1711C39.7593 30.2174 39.7781 30.2611 39.8066 30.2983C39.8351 30.3355 39.8724 30.3651 39.9151 30.3844C40.0383 30.4468 40.1745 30.4793 40.3126 30.4793C40.4508 30.4793 40.587 30.4468 40.7102 30.3844C40.7528 30.3648 40.79 30.3351 40.8186 30.298C40.8472 30.2609 40.8664 30.2173 40.8745 30.1711V30.1389Z" fill="#455A64"/>
<path d="M40.7102 30.3845C40.7528 30.3649 40.79 30.3352 40.8187 30.2981C40.8473 30.261 40.8665 30.2174 40.8746 30.1713V30.1391C40.8724 30.0756 40.8597 30.0129 40.8368 29.9536C40.8501 30.1935 40.7358 30.34 40.3816 30.3856C40.0273 30.4311 39.7953 30.2801 39.7642 30.2257C39.7952 30.2941 39.8484 30.3501 39.9152 30.3845C40.0384 30.4469 40.1746 30.4794 40.3127 30.4794C40.4508 30.4794 40.587 30.4469 40.7102 30.3845Z" fill="#37474F"/>
<path d="M44.9951 29.5772C44.9951 29.4299 44.9366 29.2887 44.8325 29.1846C44.7284 29.0805 44.5872 29.022 44.4399 29.022C44.2927 29.022 44.1515 29.0805 44.0473 29.1846C43.9432 29.2887 43.8847 29.4299 43.8847 29.5772C43.8842 29.5824 43.8842 29.5876 43.8847 29.5927C43.8841 29.5979 43.8841 29.6031 43.8847 29.6083C43.892 29.6531 43.9099 29.6956 43.9369 29.7321C43.964 29.7686 43.9994 29.7981 44.0402 29.8181C44.1624 29.88 44.2974 29.9122 44.4344 29.9122C44.5713 29.9122 44.7064 29.88 44.8286 29.8181C44.8711 29.7986 44.9082 29.7689 44.9366 29.7318C44.965 29.6946 44.984 29.6511 44.9918 29.6049V29.5739L44.9951 29.5772Z" fill="#455A64"/>
<path d="M44.8284 29.8183C44.8709 29.7987 44.908 29.769 44.9365 29.7319C44.9649 29.6947 44.9839 29.6512 44.9917 29.6051V29.574C44.9894 29.5109 44.9767 29.4486 44.9539 29.3896C44.9684 29.6284 44.8551 29.7739 44.5031 29.8183C44.1511 29.8627 43.9201 29.7139 43.8901 29.6595C43.9208 29.7277 43.9737 29.7837 44.04 29.8183C44.1622 29.8801 44.2973 29.9124 44.4342 29.9124C44.5712 29.9124 44.7062 29.8801 44.8284 29.8183Z" fill="#37474F"/>
<path d="M10.6359 13.2964V29.2398C10.6359 29.4307 10.5093 29.6217 10.2572 29.7683C9.75088 30.0604 8.93139 30.0604 8.42615 29.7683C8.17297 29.6217 8.04639 29.4352 8.04639 29.2398V13.2964H10.6359Z" fill="#B16668"/>
<path d="M0.762072 21.5479L8.78261 2.17773H9.89969L17.9213 21.549C17.9794 21.6891 18.0057 21.8404 17.9982 21.9919C17.9908 22.1434 17.9497 22.2914 17.8781 22.4252C17.8065 22.5589 17.7061 22.6751 17.5842 22.7653C17.4622 22.8556 17.3218 22.9176 17.1729 22.947L17.043 22.9725C16.7888 23.023 16.563 23.1679 16.4112 23.378C16.2594 23.5881 16.1927 23.8479 16.2246 24.1051C16.2465 24.2752 16.2254 24.4481 16.1632 24.6079C16.1009 24.7677 15.9996 24.9093 15.8685 25.0198C15.7373 25.1303 15.5805 25.2061 15.4125 25.2403C15.2444 25.2745 15.0705 25.266 14.9066 25.2156L14.5101 25.0934C14.272 25.02 14.0153 25.0359 13.788 25.1381C13.5608 25.2403 13.3785 25.4218 13.2754 25.6486L12.8767 26.5281C12.8173 26.6592 12.7308 26.7764 12.623 26.8719C12.5153 26.9674 12.3886 27.0391 12.2512 27.0824C12.1139 27.1257 11.969 27.1395 11.8259 27.123C11.6828 27.1065 11.5449 27.0601 11.421 26.9867L9.86638 26.0639C9.70805 25.9701 9.52741 25.9206 9.34338 25.9206C9.15934 25.9206 8.9787 25.9701 8.82037 26.0639L7.26579 26.9867C7.14188 27.0601 7.00391 27.1065 6.86085 27.123C6.71779 27.1395 6.57287 27.1257 6.43552 27.0824C6.29817 27.0391 6.17148 26.9674 6.0637 26.8719C5.95593 26.7764 5.86949 26.6592 5.81003 26.5281L5.41028 25.6486C5.30713 25.4218 5.12487 25.2403 4.89761 25.1381C4.67034 25.0359 4.41363 25.02 4.17549 25.0934L3.77907 25.2156C3.61519 25.2657 3.44135 25.274 3.27343 25.2397C3.10551 25.2054 2.94887 25.1295 2.81779 25.0191C2.68672 24.9087 2.5854 24.7672 2.52307 24.6075C2.46075 24.4479 2.43941 24.2752 2.46101 24.1051C2.49321 23.848 2.42681 23.5882 2.27517 23.3781C2.12354 23.1679 1.89792 23.023 1.64374 22.9725L1.5116 22.9459C1.36256 22.9168 1.22185 22.855 1.09965 22.7649C0.977458 22.6747 0.876843 22.5585 0.805095 22.4247C0.733348 22.2909 0.692265 22.1428 0.684824 21.9911C0.677383 21.8395 0.703769 21.6881 0.762072 21.5479Z" fill="#BA68C8"/>
<path opacity="0.3" d="M0.762072 21.5479L8.78261 2.17773H9.89969L17.9213 21.549C17.9794 21.6891 18.0057 21.8404 17.9982 21.9919C17.9908 22.1434 17.9497 22.2914 17.8781 22.4252C17.8065 22.5589 17.7061 22.6751 17.5842 22.7653C17.4622 22.8556 17.3218 22.9176 17.1729 22.947L17.043 22.9725C16.7888 23.023 16.563 23.1679 16.4112 23.378C16.2594 23.5881 16.1927 23.8479 16.2246 24.1051C16.2465 24.2752 16.2254 24.4481 16.1632 24.6079C16.1009 24.7677 15.9996 24.9093 15.8685 25.0198C15.7373 25.1303 15.5805 25.2061 15.4125 25.2403C15.2444 25.2745 15.0705 25.266 14.9066 25.2156L14.5101 25.0934C14.272 25.02 14.0153 25.0359 13.788 25.1381C13.5608 25.2403 13.3785 25.4218 13.2754 25.6486L12.8767 26.5281C12.8173 26.6592 12.7308 26.7764 12.623 26.8719C12.5153 26.9674 12.3886 27.0391 12.2512 27.0824C12.1139 27.1257 11.969 27.1395 11.8259 27.123C11.6828 27.1065 11.5449 27.0601 11.421 26.9867L9.86638 26.0639C9.70805 25.9701 9.52741 25.9206 9.34338 25.9206C9.15934 25.9206 8.9787 25.9701 8.82037 26.0639L7.26579 26.9867C7.14188 27.0601 7.00391 27.1065 6.86085 27.123C6.71779 27.1395 6.57287 27.1257 6.43552 27.0824C6.29817 27.0391 6.17148 26.9674 6.0637 26.8719C5.95593 26.7764 5.86949 26.6592 5.81003 26.5281L5.41028 25.6486C5.30713 25.4218 5.12487 25.2403 4.89761 25.1381C4.67034 25.0359 4.41363 25.02 4.17549 25.0934L3.77907 25.2156C3.61519 25.2657 3.44135 25.274 3.27343 25.2397C3.10551 25.2054 2.94887 25.1295 2.81779 25.0191C2.68672 24.9087 2.5854 24.7672 2.52307 24.6075C2.46075 24.4479 2.43941 24.2752 2.46101 24.1051C2.49321 23.848 2.42681 23.5882 2.27517 23.3781C2.12354 23.1679 1.89792 23.023 1.64374 22.9725L1.5116 22.9459C1.36256 22.9168 1.22185 22.855 1.09965 22.7649C0.977458 22.6747 0.876843 22.5585 0.805095 22.4247C0.733348 22.2909 0.692265 22.1428 0.684824 21.9911C0.677383 21.8395 0.703769 21.6881 0.762072 21.5479Z" fill="black"/>
<path opacity="0.1" d="M10.7948 4.34168L9.89865 2.30518H8.78268L7.30138 5.75524L2.45996 17.4457C2.4831 17.5686 2.54437 17.6811 2.63506 17.7672C2.72575 17.8533 2.84127 17.9087 2.9652 17.9254C3.16145 17.9583 3.33762 18.0651 3.45744 18.224C3.57726 18.3828 3.63159 18.5816 3.60924 18.7793L3.59148 18.9281C3.5767 19.0603 3.59608 19.194 3.64775 19.3165C3.69942 19.4391 3.78166 19.5463 3.88661 19.6279C3.99156 19.7096 4.1157 19.763 4.24716 19.7829C4.37863 19.8029 4.51302 19.7888 4.63749 19.7421L5.03391 19.591C5.21937 19.5204 5.42482 19.5234 5.60816 19.5993C5.7915 19.6753 5.93883 19.8186 6.01996 19.9997L6.51187 21.1045C6.55668 21.2051 6.62232 21.2949 6.70445 21.3682C6.78658 21.4414 6.88334 21.4964 6.98831 21.5295C7.09328 21.5626 7.20408 21.573 7.31337 21.56C7.42267 21.547 7.52796 21.511 7.62229 21.4543L8.95479 20.566C9.07491 20.4946 9.21205 20.457 9.35176 20.457C9.49148 20.457 9.62862 20.4946 9.74874 20.566L11.2334 21.4543C11.3277 21.511 11.433 21.547 11.5423 21.56C11.6516 21.573 11.7624 21.5626 11.8673 21.5295C11.9723 21.4964 12.0691 21.4414 12.1512 21.3682C12.2333 21.2949 12.299 21.2051 12.3438 21.1045L12.8357 19.9997C12.9168 19.8191 13.0638 19.6762 13.2466 19.6003C13.4294 19.5244 13.6343 19.5211 13.8195 19.591L14.2159 19.7421C14.3404 19.7886 14.4746 19.8025 14.6059 19.7824C14.7372 19.7623 14.8612 19.7089 14.966 19.6273C15.0708 19.5456 15.1529 19.4385 15.2045 19.3161C15.2561 19.1937 15.2755 19.0601 15.2608 18.9281L15.2442 18.7804C15.2215 18.5825 15.2757 18.3835 15.3956 18.2244C15.5154 18.0653 15.6918 17.9583 15.8882 17.9254C15.9769 17.9135 16.0617 17.8815 16.1362 17.8318C16.2107 17.7822 16.2728 17.7162 16.318 17.6389L10.7948 4.34168Z" fill="black"/>
<path d="M2.54995 15.9158L8.78272 1.40381H9.8998L16.288 15.9158C16.5179 16.3822 16.3869 16.9385 15.8727 17.0263C15.6763 17.0591 15.4999 17.1661 15.3801 17.3252C15.2602 17.4844 15.206 17.6834 15.2287 17.8813L15.2453 18.029C15.26 18.161 15.2406 18.2946 15.189 18.417C15.1374 18.5394 15.0553 18.6465 14.9505 18.7281C14.8457 18.8097 14.7217 18.8631 14.5904 18.8832C14.4591 18.9033 14.3249 18.8895 14.2004 18.8429L13.804 18.6919C13.6187 18.622 13.4137 18.6255 13.2308 18.7016C13.048 18.7778 12.9011 18.9208 12.8202 19.1016L12.3283 20.2054C12.2835 20.3059 12.2178 20.3958 12.1357 20.469C12.0536 20.5423 11.9568 20.5973 11.8518 20.6304C11.7469 20.6634 11.6361 20.6738 11.5268 20.6609C11.4175 20.6479 11.3122 20.6119 11.2179 20.5552L9.73323 19.6668C9.61311 19.5955 9.47598 19.5578 9.33626 19.5578C9.19654 19.5578 9.05941 19.5955 8.93928 19.6668L7.60678 20.5552C7.51246 20.6119 7.40716 20.6479 7.29787 20.6609C7.18858 20.6738 7.07778 20.6634 6.9728 20.6304C6.86783 20.5973 6.77108 20.5423 6.68894 20.469C6.60681 20.3958 6.54117 20.3059 6.49637 20.2054L6.00445 19.095C5.92334 18.9144 5.77638 18.7715 5.59355 18.6956C5.41072 18.6197 5.20581 18.6164 5.02062 18.6863L4.6242 18.8374C4.49973 18.8842 4.36534 18.8982 4.23388 18.8783C4.10241 18.8583 3.97827 18.8049 3.87332 18.7232C3.76838 18.6416 3.68614 18.5344 3.63446 18.4118C3.58279 18.2893 3.56342 18.1556 3.57819 18.0234L3.59596 17.8757C3.6186 17.6778 3.56441 17.4788 3.44457 17.3197C3.32473 17.1606 3.14838 17.0536 2.95192 17.0207C2.45112 16.9374 2.32009 16.3822 2.54995 15.9158Z" fill="#BA68C8"/>
<path opacity="0.2" d="M2.54995 15.9158L8.78272 1.40381H9.8998L16.288 15.9158C16.5179 16.3822 16.3869 16.9385 15.8727 17.0263C15.6763 17.0591 15.4999 17.1661 15.3801 17.3252C15.2602 17.4844 15.206 17.6834 15.2287 17.8813L15.2453 18.029C15.26 18.161 15.2406 18.2946 15.189 18.417C15.1374 18.5394 15.0553 18.6465 14.9505 18.7281C14.8457 18.8097 14.7217 18.8631 14.5904 18.8832C14.4591 18.9033 14.3249 18.8895 14.2004 18.8429L13.804 18.6919C13.6187 18.622 13.4137 18.6255 13.2308 18.7016C13.048 18.7778 12.9011 18.9208 12.8202 19.1016L12.3283 20.2054C12.2835 20.3059 12.2178 20.3958 12.1357 20.469C12.0536 20.5423 11.9568 20.5973 11.8518 20.6304C11.7469 20.6634 11.6361 20.6738 11.5268 20.6609C11.4175 20.6479 11.3122 20.6119 11.2179 20.5552L9.73323 19.6668C9.61311 19.5955 9.47598 19.5578 9.33626 19.5578C9.19654 19.5578 9.05941 19.5955 8.93928 19.6668L7.60678 20.5552C7.51246 20.6119 7.40716 20.6479 7.29787 20.6609C7.18858 20.6738 7.07778 20.6634 6.9728 20.6304C6.86783 20.5973 6.77108 20.5423 6.68894 20.469C6.60681 20.3958 6.54117 20.3059 6.49637 20.2054L6.00445 19.095C5.92334 18.9144 5.77638 18.7715 5.59355 18.6956C5.41072 18.6197 5.20581 18.6164 5.02062 18.6863L4.6242 18.8374C4.49973 18.8842 4.36534 18.8982 4.23388 18.8783C4.10241 18.8583 3.97827 18.8049 3.87332 18.7232C3.76838 18.6416 3.68614 18.5344 3.63446 18.4118C3.58279 18.2893 3.56342 18.1556 3.57819 18.0234L3.59596 17.8757C3.6186 17.6778 3.56441 17.4788 3.44457 17.3197C3.32473 17.1606 3.14838 17.0536 2.95192 17.0207C2.45112 16.9374 2.32009 16.3822 2.54995 15.9158Z" fill="black"/>
<path opacity="0.1" d="M9.89963 1.40381H8.78255L4.24316 11.9794C4.27729 12.0099 4.31451 12.0367 4.35421 12.0594L4.38863 12.0794C4.50536 12.1447 4.60083 12.2423 4.66364 12.3604C4.72645 12.4786 4.75394 12.6123 4.74285 12.7456C4.73347 12.8571 4.75099 12.9691 4.79394 13.0724C4.83688 13.1756 4.904 13.2671 4.98964 13.339C5.07528 13.4109 5.17693 13.4613 5.28606 13.4857C5.39519 13.5102 5.5086 13.5081 5.61675 13.4796L5.88769 13.4085C6.04046 13.3673 6.20271 13.3792 6.3478 13.4424C6.49289 13.5055 6.61218 13.6162 6.68608 13.7561L7.05807 14.449C7.14483 14.6111 7.29209 14.7324 7.46781 14.7864C7.64353 14.8405 7.8335 14.823 7.99637 14.7377L9.01796 14.2025C9.11774 14.1505 9.22859 14.1234 9.34109 14.1234C9.45359 14.1234 9.56444 14.1505 9.66422 14.2025L10.6902 14.7377C10.8531 14.8233 11.0431 14.841 11.2189 14.7869C11.3947 14.7328 11.542 14.6113 11.6285 14.449L12.0005 13.7561C12.0748 13.6176 12.1935 13.5082 12.3375 13.4456C12.4816 13.3829 12.6426 13.3706 12.7945 13.4107L13.0643 13.4818C13.1725 13.5106 13.286 13.5129 13.3952 13.4885C13.5045 13.4641 13.6063 13.4138 13.692 13.3419C13.7777 13.2699 13.8448 13.1783 13.8876 13.0749C13.9305 12.9715 13.9479 12.8593 13.9382 12.7478C13.9273 12.6145 13.9548 12.4809 14.0176 12.3628C14.0804 12.2446 14.1758 12.1471 14.2924 12.0816L14.328 12.0616C14.4009 12.02 14.4656 11.9654 14.519 11.9006L9.89963 1.40381Z" fill="black"/>
<path d="M4.10241 10.2082L8.78726 0.359953L8.8239 0.301101C8.87586 0.209673 8.95112 0.133644 9.04201 0.0807535C9.13291 0.0278632 9.23619 0 9.34136 0C9.44652 0 9.5498 0.0278632 9.6407 0.0807535C9.73159 0.133644 9.80685 0.209673 9.85881 0.301101L9.89656 0.362174L14.5803 10.2082C14.6298 10.2884 14.6626 10.3776 14.6767 10.4707C14.6908 10.5638 14.6859 10.6588 14.6624 10.75C14.6388 10.8412 14.5971 10.9267 14.5397 11.0013C14.4823 11.0759 14.4103 11.1382 14.3282 11.1843L14.2927 11.2032C14.1761 11.2687 14.0807 11.3662 14.0179 11.4844C13.9551 11.6025 13.9275 11.7361 13.9385 11.8694C13.9481 11.981 13.9307 12.0932 13.8878 12.1966C13.8449 12.3 13.7779 12.3916 13.6922 12.4636C13.6065 12.5357 13.5048 12.5861 13.3956 12.6106C13.2863 12.6351 13.1728 12.6331 13.0646 12.6045L12.7948 12.5323C12.6429 12.4924 12.482 12.5048 12.3379 12.5674C12.1939 12.6301 12.0752 12.7394 12.0008 12.8777L11.6288 13.5717C11.5418 13.7336 11.3946 13.8547 11.2189 13.9087C11.0433 13.9627 10.8534 13.9454 10.6905 13.8604L9.66449 13.3241C9.5647 13.2721 9.45386 13.245 9.34136 13.245C9.22885 13.245 9.11801 13.2721 9.01822 13.3241L7.9922 13.8604C7.82921 13.9451 7.63946 13.9623 7.4639 13.9083C7.28835 13.8543 7.14108 13.7334 7.0539 13.5717L6.68635 12.8799C6.61218 12.7417 6.49363 12.6324 6.3498 12.5698C6.20598 12.5071 6.04525 12.4947 5.89351 12.5346L5.62257 12.6067C5.51434 12.635 5.40092 12.6369 5.29181 12.6123C5.1827 12.5877 5.08108 12.5372 4.99549 12.4652C4.90989 12.3932 4.8428 12.3017 4.79986 12.1985C4.75691 12.0952 4.73936 11.9831 4.74867 11.8716C4.75962 11.7383 4.73206 11.6047 4.66927 11.4866C4.60648 11.3685 4.51109 11.2709 4.39445 11.2054L4.36002 11.1865C4.27716 11.1409 4.20444 11.0789 4.14626 11.0043C4.08807 10.9297 4.04565 10.8441 4.02156 10.7526C3.99747 10.6611 3.99222 10.5657 4.00611 10.4721C4.02001 10.3785 4.05277 10.2888 4.10241 10.2082Z" fill="#BA68C8"/>
<path opacity="0.1" d="M4.10241 10.2082L8.78726 0.359953L8.8239 0.301101C8.87586 0.209673 8.95112 0.133644 9.04201 0.0807535C9.13291 0.0278632 9.23619 0 9.34136 0C9.44652 0 9.5498 0.0278632 9.6407 0.0807535C9.73159 0.133644 9.80685 0.209673 9.85881 0.301101L9.89656 0.362174L14.5803 10.2082C14.6298 10.2884 14.6626 10.3776 14.6767 10.4707C14.6908 10.5638 14.6859 10.6588 14.6624 10.75C14.6388 10.8412 14.5971 10.9267 14.5397 11.0013C14.4823 11.0759 14.4103 11.1382 14.3282 11.1843L14.2927 11.2032C14.1761 11.2687 14.0807 11.3662 14.0179 11.4844C13.9551 11.6025 13.9275 11.7361 13.9385 11.8694C13.9481 11.981 13.9307 12.0932 13.8878 12.1966C13.8449 12.3 13.7779 12.3916 13.6922 12.4636C13.6065 12.5357 13.5048 12.5861 13.3956 12.6106C13.2863 12.6351 13.1728 12.6331 13.0646 12.6045L12.7948 12.5323C12.6429 12.4924 12.482 12.5048 12.3379 12.5674C12.1939 12.6301 12.0752 12.7394 12.0008 12.8777L11.6288 13.5717C11.5418 13.7336 11.3946 13.8547 11.2189 13.9087C11.0433 13.9627 10.8534 13.9454 10.6905 13.8604L9.66449 13.3241C9.5647 13.2721 9.45386 13.245 9.34136 13.245C9.22885 13.245 9.11801 13.2721 9.01822 13.3241L7.9922 13.8604C7.82921 13.9451 7.63946 13.9623 7.4639 13.9083C7.28835 13.8543 7.14108 13.7334 7.0539 13.5717L6.68635 12.8799C6.61218 12.7417 6.49363 12.6324 6.3498 12.5698C6.20598 12.5071 6.04525 12.4947 5.89351 12.5346L5.62257 12.6067C5.51434 12.635 5.40092 12.6369 5.29181 12.6123C5.1827 12.5877 5.08108 12.5372 4.99549 12.4652C4.90989 12.3932 4.8428 12.3017 4.79986 12.1985C4.75691 12.0952 4.73936 11.9831 4.74867 11.8716C4.75962 11.7383 4.73206 11.6047 4.66927 11.4866C4.60648 11.3685 4.51109 11.2709 4.39445 11.2054L4.36002 11.1865C4.27716 11.1409 4.20444 11.0789 4.14626 11.0043C4.08807 10.9297 4.04565 10.8441 4.02156 10.7526C3.99747 10.6611 3.99222 10.5657 4.00611 10.4721C4.02001 10.3785 4.05277 10.2888 4.10241 10.2082Z" fill="black"/>
<path d="M9.96645 29.7395C9.97413 29.5339 10.0612 29.3393 10.2094 29.1966C10.3575 29.0539 10.5552 28.9741 10.7609 28.9741C10.9667 28.9741 11.1644 29.0539 11.3125 29.1966C11.4607 29.3393 11.5478 29.5339 11.5555 29.7395C11.5569 29.7542 11.5569 29.7691 11.5555 29.7839C11.5446 29.8496 11.5178 29.9116 11.4773 29.9645C11.4369 30.0174 11.384 30.0595 11.3234 30.087C11.149 30.1752 10.9563 30.2211 10.7609 30.2211C10.5656 30.2211 10.3729 30.1752 10.1985 30.087C10.138 30.0593 10.0852 30.0172 10.0448 29.9643C10.0043 29.9115 9.97744 29.8495 9.96645 29.7839C9.96496 29.7691 9.96496 29.7542 9.96645 29.7395Z" fill="#37474F"/>
<path d="M10.1985 30.0871C10.138 30.0594 10.0852 30.0173 10.0448 29.9644C10.0043 29.9116 9.97744 29.8496 9.96645 29.784C9.96496 29.7692 9.96496 29.7544 9.96645 29.7396C9.97045 29.6008 10.0107 29.4655 10.0831 29.3471C10.1556 29.2286 10.2578 29.1312 10.3795 29.0645C10.3795 29.0722 9.98421 29.5641 10.2685 29.8917C10.4672 30.1138 11.1568 30.1593 11.4555 29.9805C11.4158 30.0247 11.3694 30.0622 11.3178 30.0916C11.1438 30.1781 10.952 30.2228 10.7576 30.222C10.5633 30.2212 10.3718 30.1751 10.1985 30.0871Z" fill="#263238"/>
<path d="M11.251 30.1389C11.2574 29.9944 11.3194 29.8579 11.4239 29.7579C11.5285 29.6579 11.6676 29.6021 11.8123 29.6021C11.957 29.6021 12.0961 29.6579 12.2007 29.7579C12.3052 29.8579 12.3672 29.9944 12.3736 30.1389C12.3742 30.1445 12.3742 30.1501 12.3736 30.1556C12.3741 30.1608 12.3741 30.166 12.3736 30.1711C12.3662 30.2174 12.3474 30.2611 12.3189 30.2983C12.2904 30.3355 12.2531 30.3651 12.2104 30.3844C12.0872 30.4468 11.951 30.4793 11.8128 30.4793C11.6747 30.4793 11.5385 30.4468 11.4153 30.3844C11.3727 30.3648 11.3355 30.3351 11.3069 30.298C11.2783 30.2609 11.2591 30.2173 11.251 30.1711V30.1389Z" fill="#455A64"/>
<path d="M11.4153 30.3845C11.3727 30.3649 11.3355 30.3352 11.3069 30.2981C11.2783 30.261 11.2591 30.2174 11.251 30.1713V30.1391C11.2531 30.0756 11.2659 30.0129 11.2887 29.9536C11.2754 30.1935 11.3898 30.34 11.744 30.3856C12.0982 30.4311 12.3303 30.2801 12.3614 30.2257C12.3304 30.2941 12.2772 30.3501 12.2104 30.3845C12.0872 30.4469 11.951 30.4794 11.8128 30.4794C11.6747 30.4794 11.5385 30.4469 11.4153 30.3845Z" fill="#37474F"/>
<path d="M7.13037 29.5772C7.13037 29.4299 7.18887 29.2887 7.29299 29.1846C7.39711 29.0805 7.53833 29.022 7.68558 29.022C7.83283 29.022 7.97405 29.0805 8.07817 29.1846C8.18229 29.2887 8.24079 29.4299 8.24079 29.5772C8.2413 29.5824 8.2413 29.5876 8.24079 29.5927C8.24138 29.5979 8.24138 29.6031 8.24079 29.6083C8.23354 29.6531 8.21564 29.6956 8.18859 29.7321C8.16154 29.7686 8.12613 29.7981 8.08533 29.8181C7.96313 29.88 7.82809 29.9122 7.69113 29.9122C7.55417 29.9122 7.41913 29.88 7.29693 29.8181C7.25422 29.7993 7.21674 29.7704 7.18772 29.7338C7.1587 29.6972 7.13902 29.6541 7.13037 29.6083V29.5772Z" fill="#455A64"/>
<path d="M7.29693 29.8184C7.25422 29.7995 7.21674 29.7706 7.18772 29.734C7.1587 29.6974 7.13902 29.6544 7.13037 29.6085V29.5774C7.13263 29.5143 7.14539 29.452 7.16812 29.3931C7.15369 29.6318 7.26695 29.7773 7.61895 29.8217C7.97096 29.8661 8.20192 29.7173 8.2319 29.6629C8.20144 29.7294 8.14993 29.784 8.08533 29.8184C7.96313 29.8802 7.82809 29.9124 7.69113 29.9124C7.55417 29.9124 7.41913 29.8802 7.29693 29.8184Z" fill="#37474F"/>
<path d="M33.5148 35.77L30.52 37.3968L29.4429 38.6671L31.264 39.0979L33.5148 40.3905L34.2587 38.9614L33.3193 37.3968L33.5148 35.77Z" fill="#BA68C8"/>
<path opacity="0.3" d="M33.5148 35.77L30.52 37.3968L29.4429 38.6671L31.264 39.0979L33.5148 40.3905L34.2587 38.9614L33.3193 37.3968L33.5148 35.77Z" fill="black"/>
<path d="M33.5148 35.77L35.2381 35.9854L35.4536 37.7665L34.2587 38.9614L33.3193 37.3968L33.5148 35.77Z" fill="#BA68C8"/>
<path opacity="0.35" d="M33.5148 35.77L35.2381 35.9854L35.4536 37.7665L34.2587 38.9614L33.3193 37.3968L33.5148 35.77Z" fill="black"/>
<path d="M37.5876 38.0796L37.7053 39.4709L36.4916 38.9613L34.9248 39.6075L34.1808 40.3904L33.5146 41.996L32.7906 44.2679L32.2231 42.2115L33.5146 40.3904L34.7338 39.2355L36.4127 38.8047L37.5876 38.0796Z" fill="#BA68C8"/>
<path d="M35.5513 43.1709L37.8232 41.5652L37.0592 39.8818L35.5513 43.1709Z" fill="#BA68C8"/>
<g opacity="0.5">
<path opacity="0.5" d="M37.5876 38.0801L37.7053 39.4714L36.4916 38.9617L34.9248 39.608L34.1808 40.3909L33.5146 41.9965L32.7906 44.2684L32.2231 42.2119L33.5146 40.3909L34.7338 39.236L36.4127 38.8052L37.5876 38.0801Z" fill="black"/>
<path opacity="0.5" d="M35.5513 43.1714L37.8232 41.5657L37.0592 39.8823L35.5513 43.1714Z" fill="black"/>
</g>
<path d="M31.767 36.7192L30.6366 37.8252L30.3434 38.4715L31.3617 38.6092L33.5148 40.3903L31.264 39.0978L29.4429 38.6669L30.52 37.3966L31.767 36.7192Z" fill="#BA68C8"/>
<path d="M35.2382 35.9854L35.0627 37.6499L34.0156 38.5549L34.2588 38.9613L35.4536 37.7665L35.2382 35.9854Z" fill="#BA68C8"/>
<path d="M32.223 42.2116L30.9305 41.8596L28.3265 40.8024L26.7397 39.4122L27.4249 38.555L28.4431 38.4717L27.6014 38.7659L27.4249 39.3922L28.2866 40.1751L32.1053 41.8196L33.5144 40.3905L32.223 42.2116Z" fill="#BA68C8"/>
<g opacity="0.25">
<path opacity="0.25" d="M31.767 36.7197L30.6366 37.8257L30.3434 38.472L31.3617 38.6097L33.5148 40.3908L31.264 39.0982L29.4429 38.6674L30.52 37.3971L31.767 36.7197Z" fill="black"/>
<path opacity="0.25" d="M35.2382 35.9858L35.0627 37.6504L34.0156 38.5553L34.2588 38.9618L35.4536 37.7669L35.2382 35.9858Z" fill="black"/>
<path opacity="0.25" d="M32.2235 42.2121L30.9309 41.8601L28.327 40.8029L26.7402 39.4127L27.4254 38.5554L28.4436 38.4722L27.6019 38.7664L27.4254 39.3927L28.287 40.1755L32.1058 41.8201L33.5149 40.391L32.2235 42.2121Z" fill="black"/>
</g>
<path d="M30.52 37.397L28.4435 38.4719L27.6018 38.7661L27.4253 39.3924L28.287 40.1752L32.1057 41.8198L32.5043 41.4156L31.244 40.0575H30.2258L29.4429 38.6673L30.52 37.397Z" fill="#BA68C8"/>
<path opacity="0.35" d="M30.52 37.397L28.4435 38.4719L27.6018 38.7661L27.4253 39.3924L28.287 40.1752L32.1057 41.8198L32.5043 41.4156L31.244 40.0575H30.2258L29.4429 38.6673L30.52 37.397Z" fill="black"/>
<path d="M35.238 35.9854L37.5877 38.0796L36.4128 38.8047L34.7339 39.2355L33.5146 40.3904L34.2586 38.9613L35.4534 37.7665L35.238 35.9854Z" fill="#BA68C8"/>
<path d="M36.4917 38.9614L34.9249 39.6077L34.1809 40.3905L33.5146 41.9962L33.8478 43.563L35.5512 43.171L37.0591 39.882L36.4917 38.9614Z" fill="#BA68C8"/>
<path d="M29.4429 38.667L30.2257 40.0572H31.244L31.264 39.0978L29.4429 38.667Z" fill="#BA68C8"/>
<path d="M27.856 41.7217L28.6788 41.9959L29.1296 41.5651L30.9307 41.8594L28.3268 40.8022L27.856 41.7217Z" fill="#BA68C8"/>
<g opacity="0.45">
<path opacity="0.45" d="M35.238 35.9858L37.5877 38.0801L36.4128 38.8052L34.7339 39.236L33.5146 40.3909L34.2586 38.9618L35.4534 37.7669L35.238 35.9858Z" fill="black"/>
<path opacity="0.45" d="M36.4917 38.9619L34.9249 39.6082L34.1809 40.391L33.5146 41.9967L33.8478 43.5635L35.5512 43.1715L37.0591 39.8825L36.4917 38.9619Z" fill="black"/>
<path opacity="0.45" d="M29.4429 38.6675L30.2257 40.0577H31.244L31.264 39.0983L29.4429 38.6675Z" fill="black"/>
<path opacity="0.45" d="M27.856 41.7222L28.6788 41.9964L29.1296 41.5656L30.9307 41.8599L28.3268 40.8027L27.856 41.7222Z" fill="black"/>
</g>
<path d="M31.6825 42.0648L30.9308 41.8594L30.1279 42.6622L30.7931 43.6993L31.6825 42.0648Z" fill="#BA68C8"/>
<path opacity="0.35" d="M31.6825 42.0648L30.9308 41.8594L30.1279 42.6622L30.7931 43.6993L31.6825 42.0648Z" fill="black"/>
<path d="M37.7054 39.4711L38.5859 40.8802L37.8231 41.5654L37.0591 39.882L36.4917 38.9614L37.7054 39.4711Z" fill="#BA68C8"/>
<path d="M32.7905 44.268L33.8476 43.5629L33.5145 41.9961L32.7905 44.268Z" fill="#BA68C8"/>
<path d="M33.5145 40.3907L32.504 41.4156L31.2437 40.0575L31.2636 39.0981L33.5145 40.3907Z" fill="#BA68C8"/>
<path d="M26.74 39.4121L26.2314 40.5281L27.856 41.7218L28.3268 40.8024L26.74 39.4121Z" fill="#BA68C8"/>
<path d="M32.7906 44.268L30.793 43.6995L31.6824 42.0649L32.2232 42.2115L32.7906 44.268Z" fill="#BA68C8"/>
<path d="M28.6787 41.9963L30.1278 42.6625L30.9306 41.8597L29.1295 41.5654L28.6787 41.9963Z" fill="#BA68C8"/>
<g opacity="0.4">
<path opacity="0.4" d="M37.7054 39.4711L38.5859 40.8802L37.8231 41.5654L37.0591 39.882L36.4917 38.9614L37.7054 39.4711Z" fill="black"/>
<path opacity="0.4" d="M32.7905 44.268L33.8476 43.5629L33.5145 41.9961L32.7905 44.268Z" fill="black"/>
<path opacity="0.4" d="M33.5145 40.3907L32.504 41.4156L31.2437 40.0575L31.2636 39.0981L33.5145 40.3907Z" fill="black"/>
<path opacity="0.4" d="M26.74 39.4121L26.2314 40.5281L27.856 41.7218L28.3268 40.8024L26.74 39.4121Z" fill="black"/>
<path opacity="0.4" d="M32.7906 44.268L30.793 43.6995L31.6824 42.0649L32.2232 42.2115L32.7906 44.268Z" fill="black"/>
<path opacity="0.4" d="M28.6787 41.9963L30.1278 42.6625L30.9306 41.8597L29.1295 41.5654L28.6787 41.9963Z" fill="black"/>
</g>
<path d="M20.8366 23.1444V18.4707C20.5046 18.5048 20.1965 18.659 19.9703 18.9044C19.7441 19.1499 19.6154 19.4695 19.6085 19.8032V22.024C19.6062 22.1812 19.6373 22.337 19.6997 22.4812C19.7621 22.6254 19.8543 22.7547 19.9704 22.8606C20.0865 22.9665 20.2237 23.0466 20.3731 23.0955C20.5224 23.1444 20.6804 23.1611 20.8366 23.1444Z" fill="#455A64"/>
<path d="M21.6629 24.7288L23.3618 24.58V14.373L21.6629 14.5218C21.3554 14.5533 21.0702 14.6963 20.8611 14.9238C20.652 15.1514 20.5335 15.4476 20.528 15.7566V23.6928C20.5252 23.8382 20.5535 23.9825 20.6109 24.1161C20.6684 24.2497 20.7536 24.3695 20.861 24.4676C20.9684 24.5656 21.0955 24.6396 21.2338 24.6847C21.372 24.7297 21.5183 24.7448 21.6629 24.7288Z" fill="#37474F"/>
<path d="M27.4646 24.2215L22.4877 24.6568C22.431 24.6626 22.3738 24.6563 22.3197 24.6384C22.2656 24.6205 22.216 24.5913 22.174 24.5528C22.1321 24.5143 22.0987 24.4673 22.0762 24.415C22.0537 24.3627 22.0426 24.3062 22.0435 24.2492V14.9384C22.0458 14.8172 22.0921 14.7009 22.1738 14.6114C22.2556 14.5219 22.3672 14.4652 22.4877 14.452L27.4646 14.0168C27.5212 14.0109 27.5785 14.0172 27.6325 14.0351C27.6866 14.053 27.7362 14.0822 27.7782 14.1207C27.8202 14.1592 27.8535 14.2062 27.876 14.2585C27.8985 14.3108 27.9097 14.3673 27.9087 14.4243V23.7373C27.906 23.8582 27.8594 23.9739 27.7777 24.0629C27.696 24.152 27.5847 24.2083 27.4646 24.2215Z" fill="#263238"/>
<path d="M27.5125 12.0749L21.4263 12.6068V15.5816L27.5125 15.0486C28.0677 14.9998 28.5196 14.2947 28.5196 13.473C28.5196 12.6513 28.0688 12.0261 27.5125 12.0749Z" fill="#BA68C8"/>
<path opacity="0.15" d="M27.5125 12.0749L21.4263 12.6068V15.5816L27.5125 15.0486C28.0677 14.9998 28.5196 14.2947 28.5196 13.473C28.5196 12.6513 28.0688 12.0261 27.5125 12.0749Z" fill="black"/>
<path d="M22.4253 14.1666C22.4855 13.3445 22.0861 12.6453 21.5332 12.6048C20.9803 12.5643 20.4832 13.1979 20.423 14.0199C20.3628 14.8419 20.7622 15.5411 21.3151 15.5816C21.868 15.6221 22.3651 14.9886 22.4253 14.1666Z" fill="#BA68C8"/>
<path opacity="0.3" d="M22.4253 14.1666C22.4855 13.3445 22.0861 12.6453 21.5332 12.6048C20.9803 12.5643 20.4832 13.1979 20.423 14.0199C20.3628 14.8419 20.7622 15.5411 21.3151 15.5816C21.868 15.6221 22.3651 14.9886 22.4253 14.1666Z" fill="black"/>
<path d="M28.0745 38.2095C28.0355 38.3782 28.0378 38.5537 28.0811 38.7214C28.1556 38.8302 28.2454 38.9278 28.3476 39.0112C28.5857 39.2204 28.7902 39.465 28.9539 39.7363C29.1487 40.0707 29.4139 40.3587 29.7312 40.5802C30.1508 40.8251 30.6481 40.9006 31.1214 40.7912C31.5523 40.6901 31.7877 40.5214 31.7388 40.186C30.4985 39.5331 29.2859 38.9235 28.0745 38.2095Z" fill="#263238"/>
<path d="M31.2612 27.0077C29.9986 25.3421 29.63 24.9257 28.7916 23.863C28.4607 23.9108 28.1266 23.9335 27.7922 23.9307L28.3408 23.1646L23.0507 23.2123C23.0507 24.3971 23.0285 31.637 23.0285 31.637C22.9997 31.9779 22.742 32.954 22.7165 34.1821C22.6799 35.9643 23.0363 39.1013 23.0496 39.38C23.0652 39.6405 23.0815 39.8996 23.0985 40.1573C23.1129 40.3738 23.1429 40.5315 23.3606 40.6136C23.5421 40.6865 23.737 40.7202 23.9324 40.7125C24.1028 40.7034 24.2671 40.6465 24.4066 40.5481C24.5398 40.4493 24.5243 40.2017 24.5431 40.0507C24.5654 39.8719 24.5931 39.6942 24.6153 39.5143C24.7941 38.0053 25.2971 34.2154 25.5236 32.4532C25.6902 31.1629 25.98 28.6656 26.1488 27.1943C26.3009 27.3319 26.4708 27.4752 26.6585 27.6295C27.6978 28.4823 28.9526 29.2952 29.5633 29.8026C29.0959 30.4444 28.6928 31.0008 28.534 32.1556C28.4907 32.4754 28.4618 32.7963 28.4396 33.1183C28.3863 33.9112 28.3741 34.7051 28.3563 35.4991C28.3497 35.8566 28.3419 36.2142 28.3263 36.5717C28.3197 36.7239 28.3119 36.876 28.3008 37.0281C28.2864 37.218 28.2497 37.3612 28.373 37.5356C28.4532 37.6357 28.5483 37.723 28.655 37.7943C28.7051 37.8339 28.76 37.8671 28.8183 37.8931C28.9716 37.9405 29.1365 37.9342 29.2857 37.8754C29.3828 37.8489 29.4747 37.8065 29.5578 37.7499C29.629 37.6992 29.6828 37.6279 29.7121 37.5456C29.7312 37.4478 29.7424 37.3486 29.7455 37.2491C29.7677 37.1192 29.7999 36.9904 29.8332 36.8627C29.9353 36.4718 30.0497 36.0854 30.1485 35.6901C30.6238 33.819 31.5421 31.788 32.0362 30.1724C32.5448 28.5245 32.3361 28.4224 31.2612 27.0077Z" fill="#FFA8A7"/>
<path d="M25.9156 43.1009C25.9567 43.1398 25.9445 43.4107 25.8979 43.4829C25.8512 43.5551 25.5647 43.8038 25.0473 43.8405C24.5554 43.876 24.1145 43.8094 23.8258 43.6262C23.5371 43.443 23.3961 43.2397 23.3694 42.9599C23.3428 42.6801 23.3694 42.4047 23.2395 42.1926C23.1163 41.9939 22.9186 41.7684 22.8764 41.6607C22.7831 41.4253 22.8764 41.0889 22.8764 41.0889L25.9156 43.1009Z" fill="#263238"/>
<path d="M28.5929 23.1313H22.7143C22.4045 28.3681 22.56 33.1806 22.56 33.1806C22.56 33.1806 23.0164 33.677 24.0568 33.7458C25.1573 33.8191 25.5848 33.4993 25.5848 33.4993L26.6619 27.633L29.3113 29.8416C29.1336 30.1309 28.9848 30.437 28.8672 30.7555C28.8672 30.7555 29.2225 31.3573 30.223 31.6005C31.2235 31.8437 31.7587 31.4839 31.7587 31.4839C31.7587 31.4839 32.5293 29.5018 32.5571 29.0021C32.5848 28.5024 32.3084 28.237 31.3911 26.9978C30.4739 25.7586 28.5929 23.1313 28.5929 23.1313Z" fill="#BA68C8"/>
<path opacity="0.15" d="M26.6621 27.6327L26.8531 26.8887C26.8531 26.8887 28.2111 26.4445 28.934 25.5273C28.934 25.5273 28.542 26.7377 27.3317 27.1152L27.0796 27.6327L29.3116 29.8413L26.6621 27.6327Z" fill="black"/>
<path d="M31.7376 39.9418C31.5844 39.4277 31.1702 39.2201 30.8082 38.8692C30.5163 38.6009 30.2679 38.2888 30.072 37.9442C29.9436 37.6667 29.89 37.3605 29.9165 37.0559C29.931 36.8038 30.0165 36.7061 29.4924 36.7227C28.9682 36.7394 28.7984 36.8693 28.7617 37.1125C28.7251 37.3557 28.6762 37.4212 28.6407 37.2602C28.6051 37.0992 28.714 36.8826 28.5185 36.796C28.3231 36.7094 28.3286 36.6017 28.332 36.5162C28.3344 36.4674 28.3344 36.4185 28.332 36.3696C28.332 36.3696 28.0755 36.3796 28.1665 36.8571C28.2576 37.3346 28.081 37.4967 28.0555 37.9675C28.044 38.0903 28.0591 38.2142 28.0999 38.3306C28.2354 38.6327 28.4908 38.7248 28.6984 38.9969C28.9061 39.2689 29.1426 39.6043 29.3769 39.8852C29.5375 40.0817 29.7368 40.243 29.9624 40.3591C30.188 40.4753 30.4351 40.5438 30.6883 40.5603C31.1602 40.5726 31.892 40.456 31.7376 39.9418Z" fill="#455A64"/>
<path d="M25.6228 42.3659C25.4651 42.196 25.3441 42.0661 25.1953 41.8884C25.1063 41.7803 25.0237 41.6672 24.9476 41.5497C24.8755 41.4218 24.8117 41.2894 24.7566 41.1533C24.6454 40.8185 24.6057 40.464 24.6401 40.1128C24.6856 39.7531 24.8621 39.3211 24.76 39.2645C24.6578 39.2079 24.5745 39.1257 24.187 39.1168C23.7995 39.1079 23.2831 39.0979 23.2987 39.4122C23.3142 39.7264 23.3531 39.873 23.2987 39.8452C23.2443 39.8175 23.2343 39.6065 23.1699 39.5121C23.1055 39.4177 23.0588 39.5021 23.051 39.3811C23.0433 39.26 23.0333 39.1868 23.0333 39.1868C23.0333 39.1868 22.789 39.2079 22.8323 39.5587C22.8748 39.9314 22.8952 40.3063 22.8934 40.6814C22.8834 40.8579 22.8001 41.1333 22.8934 41.3532C22.9569 41.4836 23.0344 41.6069 23.1243 41.7207C23.2783 41.9181 23.3813 42.1503 23.4241 42.397C23.4375 42.508 23.4308 42.6191 23.4486 42.7223C23.4799 42.9049 23.5632 43.0746 23.6884 43.211C23.8137 43.3475 23.9756 43.445 24.1548 43.4918C24.4962 43.5878 24.8549 43.6057 25.2041 43.544C25.5273 43.4874 25.947 43.3553 25.9259 42.9688C25.8972 42.739 25.7902 42.526 25.6228 42.3659Z" fill="#455A64"/>
<path d="M27.9576 14.0737C28.7793 14.0393 29.1924 14.4657 29.5255 15.6905C29.7854 16.6443 30.2318 18.5242 30.2318 18.5242L32.7591 15.9781L34.0594 16.7109C34.0594 16.7109 32.2605 19.0595 31.1845 20.4253C30.4072 21.4091 29.802 21.4446 29.3357 20.8106C28.3796 19.5081 27.388 16.4633 27.388 16.4633C27.1281 15.5117 27.1726 14.3735 27.9576 14.0737Z" fill="#E9A5A5"/>
<path d="M33.2858 14.2176C33.2237 14.1893 33.1553 14.1778 33.0875 14.1844C33.0196 14.1911 32.9547 14.2156 32.8993 14.2554C32.7402 14.3592 32.6078 14.4991 32.5129 14.6636C32.418 14.8282 32.3632 15.0129 32.353 15.2026C32.3463 15.2694 32.357 15.3368 32.3841 15.3983C32.4111 15.4598 32.4536 15.5132 32.5074 15.5535C32.5396 15.5723 32.755 15.6889 32.785 15.7067C32.8468 15.7356 32.9154 15.7474 32.9833 15.7408C33.0513 15.7341 33.1163 15.7093 33.1714 15.6689C33.3308 15.5654 33.4636 15.4256 33.5587 15.261C33.6538 15.0964 33.7087 14.9116 33.7188 14.7218C33.7256 14.6545 33.7147 14.5867 33.6872 14.525C33.6598 14.4633 33.6167 14.4098 33.5623 14.3698C33.5301 14.3509 33.3169 14.2354 33.2858 14.2176Z" fill="#455A64"/>
<path d="M32.625 15.3539C32.625 15.7025 32.8693 15.8436 33.1713 15.6692C33.3308 15.5657 33.4635 15.4259 33.5586 15.2613C33.6538 15.0967 33.7086 14.9119 33.7188 14.722C33.7188 14.3734 33.4745 14.2312 33.1713 14.4056C33.0122 14.5096 32.8798 14.6497 32.7849 14.8144C32.6899 14.9792 32.6352 15.164 32.625 15.3539Z" fill="#37474F"/>
<path d="M36.6324 15.6246L33.4799 14.4787C33.4596 14.4697 33.4377 14.4652 33.4155 14.4653C33.3529 14.4691 33.2921 14.4886 33.239 14.522C33.1003 14.6142 32.9848 14.7373 32.9016 14.8815C32.8183 15.0258 32.7696 15.1874 32.7593 15.3537C32.7593 15.4181 32.7704 15.5524 32.8625 15.5957L35.6808 17.2802L36.6324 15.6246Z" fill="#BA68C8"/>
<path opacity="0.5" d="M36.6324 15.6246L33.4799 14.4787C33.4596 14.4697 33.4377 14.4652 33.4155 14.4653C33.3529 14.4691 33.2921 14.4886 33.239 14.522C33.1003 14.6142 32.9848 14.7373 32.9016 14.8815C32.8183 15.0258 32.7696 15.1874 32.7593 15.3537C32.7593 15.4181 32.7704 15.5524 32.8625 15.5957L35.6808 17.2802L36.6324 15.6246Z" fill="black"/>
<path d="M36.3458 15.236C36.1981 15.1505 35.9938 15.1616 35.7672 15.2927C35.5283 15.4485 35.3295 15.6585 35.1871 15.9057C35.0447 16.1529 34.9627 16.4302 34.9478 16.7151C34.9478 16.9716 35.0366 17.1515 35.1798 17.2392C35.2276 17.2692 35.5496 17.4424 35.5951 17.4691C35.7439 17.5557 35.9482 17.5435 36.1748 17.4136C36.4147 17.2581 36.6145 17.0481 36.7579 16.8007C36.9013 16.5533 36.9842 16.2755 36.9998 15.99C36.9998 15.7324 36.9099 15.5458 36.7644 15.4637C36.7111 15.4359 36.3913 15.2627 36.3458 15.236Z" fill="#455A64"/>
<path d="M35.3555 16.9372C35.3555 17.4591 35.723 17.6711 36.175 17.4102C36.4145 17.255 36.614 17.0456 36.7574 16.7988C36.9007 16.552 36.9839 16.2749 37 15.99C37 15.4681 36.6324 15.256 36.1805 15.5169C35.9408 15.6719 35.7411 15.8813 35.5977 16.1281C35.4544 16.375 35.3713 16.6522 35.3555 16.9372Z" fill="#37474F"/>
<path d="M35.8097 17.3192C35.5876 17.3192 35.5576 17.0516 35.5576 16.9361C35.573 16.6874 35.6459 16.4456 35.7706 16.2298C35.8953 16.014 36.0683 15.83 36.2761 15.6924C36.3555 15.642 36.4464 15.6126 36.5403 15.6069C36.768 15.6069 36.7924 15.8745 36.7924 15.99C36.777 16.2388 36.7041 16.4805 36.5794 16.6963C36.4548 16.9121 36.2817 17.0961 36.074 17.2337C35.9945 17.2841 35.9036 17.3135 35.8097 17.3192Z" fill="#263238"/>
<path d="M36.5233 15.7214C36.523 15.6843 36.5204 15.6472 36.5156 15.6104C36.4304 15.6199 36.3485 15.6484 36.2757 15.6936C36.0677 15.8311 35.8945 16.015 35.7696 16.2308C35.6448 16.4466 35.5717 16.6885 35.5562 16.9373C35.556 16.9745 35.5586 17.0116 35.5639 17.0483C35.6491 17.0386 35.731 17.0102 35.8038 16.9651C36.0118 16.8276 36.185 16.6437 36.3099 16.4279C36.4347 16.2121 36.5078 15.9702 36.5233 15.7214Z" fill="#BA68C8"/>
<path opacity="0.3" d="M36.5233 15.7214C36.523 15.6843 36.5204 15.6472 36.5156 15.6104C36.4304 15.6199 36.3485 15.6484 36.2757 15.6936C36.0677 15.8311 35.8945 16.015 35.7696 16.2308C35.6448 16.4466 35.5717 16.6885 35.5562 16.9373C35.556 16.9745 35.5586 17.0116 35.5639 17.0483C35.6491 17.0386 35.731 17.0102 35.8038 16.9651C36.0118 16.8276 36.185 16.6437 36.3099 16.4279C36.4347 16.2121 36.5078 15.9702 36.5233 15.7214Z" fill="black"/>
<path d="M36.0648 15.9448C36.218 15.7594 36.4168 15.6972 36.4479 15.766C36.479 15.8349 36.3824 16.5056 35.7339 16.9009C35.9495 16.7077 36.1263 16.4752 36.2547 16.2158C36.3546 15.9926 36.2624 15.8105 36.0648 15.9448Z" fill="#E0E0E0"/>
<path d="M31.9208 15.0061C31.8589 14.9771 31.7904 14.9654 31.7224 14.972C31.6544 14.9787 31.5894 15.0035 31.5343 15.0438C31.3751 15.1476 31.2425 15.2874 31.1474 15.452C31.0523 15.6166 30.9973 15.8012 30.9869 15.991C30.98 16.0578 30.9907 16.1253 31.018 16.1866C31.0453 16.248 31.0881 16.3012 31.1424 16.3408C31.1746 16.3608 31.3889 16.4774 31.42 16.4951C31.4818 16.5241 31.5504 16.5359 31.6184 16.5292C31.6863 16.5226 31.7513 16.4978 31.8064 16.4574C31.9657 16.3536 32.0982 16.2138 32.1934 16.0492C32.2885 15.8847 32.3434 15.7 32.3538 15.5102C32.3608 15.443 32.35 15.3751 32.3225 15.3133C32.2951 15.2515 32.2519 15.1981 32.1973 15.1582C32.1651 15.1393 31.9519 15.0238 31.9208 15.0061Z" fill="#455A64"/>
<path d="M31.2588 16.141C31.2588 16.4908 31.5042 16.6318 31.8062 16.4575C31.9655 16.3538 32.0981 16.2139 32.1932 16.0494C32.2883 15.8848 32.3433 15.7001 32.3537 15.5103C32.3537 15.1605 32.1083 15.0195 31.8062 15.1938C31.647 15.2976 31.5144 15.4374 31.4193 15.602C31.3242 15.7666 31.2692 15.9512 31.2588 16.141Z" fill="#37474F"/>
<path d="M34.7203 16.7285L32.1275 15.2717H32.1197C32.0995 15.2624 32.0775 15.2578 32.0553 15.2583C31.9925 15.2616 31.9317 15.2811 31.8787 15.315C31.74 15.4069 31.6244 15.5297 31.5412 15.6739C31.458 15.818 31.4093 15.9795 31.399 16.1456C31.3965 16.1859 31.4021 16.2263 31.4155 16.2645C31.4288 16.3026 31.4496 16.3377 31.4767 16.3676L33.7698 18.3808L34.7203 16.7285Z" fill="#BA68C8"/>
<path opacity="0.5" d="M34.7203 16.7285L32.1275 15.2717H32.1197C32.0995 15.2624 32.0775 15.2578 32.0553 15.2583C31.9925 15.2616 31.9317 15.2811 31.8787 15.315C31.74 15.4069 31.6244 15.5297 31.5412 15.6739C31.458 15.818 31.4093 15.9795 31.399 16.1456C31.3965 16.1859 31.4021 16.2263 31.4155 16.2645C31.4288 16.3026 31.4496 16.3377 31.4767 16.3676L33.7698 18.3808L34.7203 16.7285Z" fill="black"/>
<path d="M34.6882 16.6794C34.6141 16.5847 34.5774 16.4662 34.5849 16.3463C34.5936 16.1054 34.6706 15.872 34.807 15.6733L33.7144 16.3029C33.7651 16.2773 33.82 16.2607 33.8765 16.2541L34.7171 16.726L34.6882 16.6794Z" fill="#263238"/>
<path d="M34.4346 16.34C34.2858 16.2534 34.0815 16.2656 33.8561 16.3967C33.6175 16.5518 33.419 16.7611 33.2766 17.0075C33.1342 17.2539 33.052 17.5305 33.0366 17.8147C33.0366 18.07 33.1255 18.251 33.2687 18.3388C33.3164 18.3676 33.6385 18.542 33.684 18.5686C33.8317 18.6552 34.0371 18.643 34.2636 18.512C34.5019 18.3566 34.7001 18.1472 34.8423 17.9008C34.9845 17.6544 35.0666 17.378 35.082 17.094C35.082 16.8364 34.9921 16.6498 34.8477 16.5677C34.8 16.5399 34.4802 16.3667 34.4346 16.34Z" fill="#455A64"/>
<path d="M33.4468 18.0398C33.4468 18.5617 33.8132 18.7737 34.2663 18.5117C34.5045 18.3563 34.7028 18.1469 34.8449 17.9005C34.9871 17.6541 35.0693 17.3777 35.0846 17.0937C35.0846 16.5707 34.7182 16.3597 34.2663 16.6206C34.0276 16.776 33.829 16.9855 33.6866 17.2321C33.5442 17.4787 33.462 17.7554 33.4468 18.0398Z" fill="#37474F"/>
<path d="M33.8974 18.4232C33.6754 18.4232 33.6465 18.1545 33.6465 18.0401C33.6621 17.7914 33.735 17.5496 33.8594 17.3337C33.9838 17.1178 34.1565 16.9336 34.3638 16.7953C34.4437 16.7451 34.535 16.7161 34.6292 16.7109C34.8568 16.7109 34.8813 16.9785 34.8813 17.094C34.8656 17.3427 34.7926 17.5844 34.668 17.8002C34.5433 18.0159 34.3704 18.1999 34.1628 18.3377C34.0831 18.3883 33.9917 18.4177 33.8974 18.4232Z" fill="#263238"/>
<path d="M34.6126 16.8264C34.6124 16.7892 34.6094 16.7521 34.6037 16.7153C34.5187 16.7248 34.4368 16.7528 34.3638 16.7975C34.1565 16.9357 33.9839 17.12 33.8594 17.3359C33.735 17.5518 33.6621 17.7936 33.6465 18.0423C33.6462 18.0794 33.6488 18.1166 33.6543 18.1533C33.7393 18.1439 33.8212 18.1158 33.8941 18.0712C34.1019 17.9332 34.2749 17.7491 34.3995 17.5331C34.5241 17.3171 34.5971 17.0752 34.6126 16.8264Z" fill="#BA68C8"/>
<path opacity="0.3" d="M34.6126 16.8264C34.6124 16.7892 34.6094 16.7521 34.6037 16.7153C34.5187 16.7248 34.4368 16.7528 34.3638 16.7975C34.1565 16.9357 33.9839 17.12 33.8594 17.3359C33.735 17.5518 33.6621 17.7936 33.6465 18.0423C33.6462 18.0794 33.6488 18.1166 33.6543 18.1533C33.7393 18.1439 33.8212 18.1158 33.8941 18.0712C34.1019 17.9332 34.2749 17.7491 34.3995 17.5331C34.5241 17.3171 34.5971 17.0752 34.6126 16.8264Z" fill="black"/>
<path d="M34.1537 17.0484C34.3069 16.8619 34.5057 16.7997 34.5368 16.8686C34.5678 16.9374 34.4701 17.6092 33.8228 18.0045C34.038 17.8111 34.2147 17.5786 34.3435 17.3194C34.4457 17.0962 34.3513 16.913 34.1537 17.0484Z" fill="#E0E0E0"/>
<path d="M33.7173 15.0376L34.8089 15.675L33.7173 16.3057L32.6191 15.6716L33.7173 15.0376Z" fill="#37474F"/>
<path d="M35.282 15.1308C35.1299 14.5911 35.0233 14.4379 34.337 14.228C33.6508 14.0181 33.321 14.0226 33.0234 14.228C32.7258 14.4334 32.7591 14.6855 33.1689 14.8587C33.6064 15.0442 34.5014 15.0108 34.8068 14.9575L35.282 15.1308Z" fill="#E9A5A5"/>
<path d="M30.2321 18.5243C29.9464 18.7724 29.7072 19.0695 29.5259 19.4015C29.6638 18.9853 29.8831 18.6007 30.171 18.27L30.2321 18.5243Z" fill="#F28F8F"/>
<path d="M22.5645 24.3771C23.4195 25.0001 27.5425 25.4753 29.338 24.1628C29.338 24.1628 29.2969 18.8239 29.1559 16.1678C29.1492 16.0479 29.1415 15.9302 29.1292 15.8169C29.1292 15.7792 29.1192 15.7414 29.1159 15.7059C29.0806 15.5004 28.9998 15.3054 28.8794 15.1351C28.7064 14.87 28.5 14.6281 28.2653 14.4156C28.1543 14.3101 28.0244 14.2224 27.9022 14.1258C27.8555 14.083 27.8 14.0509 27.7396 14.0317C27.6792 14.0125 27.6153 14.0067 27.5524 14.0147H27.4092H27.2571C26.5842 14.0447 25.6192 14.1535 24.8441 14.2524L24.6931 14.2723L24.5599 14.289C24.028 14.359 23.6338 14.4167 23.5738 14.4256H23.5638C23.3895 14.47 23.2307 14.5122 23.0986 14.5511C22.7432 14.6554 23.0075 14.5655 22.9298 14.9086C22.6999 15.918 22.7155 19.5724 22.7155 19.5724L22.5645 24.3771Z" fill="#F5F5F5"/>
<path d="M25.0686 10.4722L24.8277 10.7309L24.7166 9.38287C24.6201 9.3708 24.5222 9.38093 24.4302 9.41249C24.3382 9.44405 24.2546 9.4962 24.1859 9.56498C23.956 9.79594 24.0748 10.5255 24.3558 11.2406C24.3558 11.2406 24.6223 12.5409 24.7322 12.7552C24.8038 12.8866 24.923 12.9855 25.0653 13.0317L25.0686 10.4722Z" fill="#263238"/>
<path d="M25.0306 11.3065C24.9262 11.3676 24.7785 11.1655 24.6508 11.03C24.5232 10.8945 24.1045 10.708 23.8913 11.1477C23.6781 11.5874 24.069 12.1937 24.3988 12.3003C24.9673 12.4836 25.0562 12.1182 25.0562 12.1182L25.0784 14.2158C25.668 15.3007 27.6923 14.7621 26.9405 14.0404V13.5074C27.2265 13.5304 27.5137 13.5327 27.8 13.514C28.2197 13.453 28.3941 13.1631 28.5251 12.7112C28.735 11.9828 28.8171 11.3953 28.6539 9.96069C28.4762 8.38723 26.6485 8.35725 25.6558 8.97131C24.6631 9.58537 25.0306 11.3065 25.0306 11.3065Z" fill="#FFA8A7"/>
<path d="M29.1525 8.43924C29.0968 8.38134 29.0205 8.34779 28.9402 8.34592C28.8599 8.34405 28.7822 8.374 28.7239 8.42924C28.7776 8.25762 28.8024 8.07823 28.7971 7.89846C28.7905 7.70525 28.7083 7.47206 28.5162 7.44541C28.4153 7.44341 28.316 7.47122 28.2308 7.52536C27.5002 7.88847 26.6862 8.04171 25.8879 8.20827C25.517 8.27286 25.1545 8.37902 24.8074 8.52474C24.7237 8.56322 24.6422 8.60622 24.5631 8.65355C24.341 8.79124 24.119 9.21764 24.3011 9.47304C24.3119 9.4863 24.3195 9.50188 24.3233 9.51856L24.6631 11.0443C24.7896 11.1664 24.984 11.5073 25.0362 11.5073C25.3138 11.5073 25.3782 10.1537 25.4326 9.95274C25.4542 9.89556 25.4911 9.84543 25.5393 9.80782C25.5874 9.77022 25.645 9.7466 25.7057 9.73954C25.8275 9.72752 25.9505 9.7373 26.0689 9.76841C26.5636 9.86195 27.0667 9.90363 27.5701 9.89277C27.931 9.90161 28.2895 9.83308 28.6217 9.69179C28.9459 9.53633 29.2224 9.24096 29.2713 8.88452C29.2862 8.80614 29.2833 8.7254 29.2627 8.64831C29.2422 8.57122 29.2045 8.49976 29.1525 8.43924Z" fill="#263238"/>
<path d="M24.4022 9.49747C24.3362 9.5736 24.2427 9.6204 24.1423 9.62758C24.0418 9.63477 23.9426 9.60174 23.8664 9.53578C23.7903 9.46981 23.7435 9.3763 23.7363 9.27582C23.7291 9.17535 23.7622 9.07613 23.8281 9L24.4022 9.49747Z" fill="#263238"/>
<path d="M26.9429 13.5072C26.9429 13.5072 26.0068 13.4106 25.6815 13.234C25.4911 13.1322 25.3363 12.975 25.2373 12.7832C25.2849 12.9749 25.3706 13.1551 25.4894 13.3129C25.727 13.6205 26.944 13.8559 26.944 13.8559L26.9429 13.5072Z" fill="#F28F8F"/>
<path d="M26.673 11.0842C26.6712 11.121 26.6587 11.1564 26.637 11.1861C26.6153 11.2158 26.5854 11.2384 26.5509 11.2513C26.5164 11.2641 26.479 11.2665 26.4431 11.2582C26.4073 11.2499 26.3747 11.2312 26.3494 11.2045C26.3241 11.1779 26.3072 11.1443 26.3007 11.1081C26.2943 11.0719 26.2987 11.0346 26.3133 11.0009C26.3279 10.9671 26.3521 10.9384 26.3828 10.9183C26.4136 10.8982 26.4496 10.8875 26.4864 10.8877C26.5116 10.8883 26.5364 10.8938 26.5594 10.904C26.5825 10.9142 26.6032 10.9289 26.6206 10.9472C26.6379 10.9654 26.6515 10.9869 26.6605 11.0105C26.6695 11.034 26.6737 11.0591 26.673 11.0842Z" fill="#263238"/>
<path d="M26.4809 10.3746L26.0779 10.5967C26.0495 10.5416 26.0436 10.4776 26.0614 10.4181C26.0792 10.3587 26.1193 10.3085 26.1733 10.278C26.1997 10.2634 26.2288 10.2542 26.2588 10.2512C26.2888 10.2481 26.3191 10.2512 26.3479 10.2602C26.3767 10.2692 26.4033 10.2841 26.4262 10.3037C26.4491 10.3234 26.4677 10.3475 26.4809 10.3746Z" fill="#263238"/>
<path d="M26.7483 12.3848L27.2702 12.5858C27.2587 12.6208 27.2401 12.6532 27.2158 12.6809C27.1914 12.7086 27.1617 12.7311 27.1284 12.7471C27.0951 12.7631 27.059 12.7722 27.0221 12.7738C26.9852 12.7755 26.9484 12.7697 26.9138 12.7568C26.8436 12.728 26.7872 12.6733 26.7564 12.604C26.7255 12.5347 26.7227 12.4561 26.7483 12.3848Z" fill="#F28F8F"/>
<path d="M28.3388 10.5444L27.9746 10.2601C27.992 10.2355 28.0142 10.2146 28.0398 10.1989C28.0655 10.1831 28.0941 10.1727 28.1239 10.1684C28.1538 10.164 28.1841 10.1657 28.2133 10.1735C28.2424 10.1813 28.2696 10.1949 28.2933 10.2135C28.3417 10.2524 28.3734 10.3083 28.3819 10.3699C28.3903 10.4314 28.3749 10.4938 28.3388 10.5444Z" fill="#263238"/>
<path d="M28.2174 11.0422C28.2157 11.079 28.2032 11.1144 28.1815 11.1441C28.1598 11.1738 28.1298 11.1964 28.0953 11.2093C28.0609 11.2221 28.0234 11.2245 27.9876 11.2162C27.9517 11.2079 27.9192 11.1892 27.8938 11.1626C27.8685 11.1359 27.8516 11.1024 27.8452 11.0661C27.8387 11.0299 27.8431 10.9926 27.8577 10.9589C27.8723 10.9251 27.8965 10.8964 27.9273 10.8763C27.9581 10.8562 27.9941 10.8455 28.0308 10.8457C28.056 10.8463 28.0808 10.8518 28.1039 10.862C28.1269 10.8722 28.1477 10.8869 28.165 10.9052C28.1824 10.9234 28.1959 10.9449 28.2049 10.9685C28.2139 10.992 28.2181 11.0171 28.2174 11.0422Z" fill="#263238"/>
<path d="M27.3135 10.9023L27.3668 12.0305L27.9575 11.834L27.3135 10.9023Z" fill="#F28F8F"/>
<path d="M24.7455 14.272C24.7455 14.272 25.5828 15.5179 25.4984 17.0825C25.233 22.0116 22.6113 22.8422 22.6113 22.8422L22.6569 21.4076C22.6569 21.4076 24.1004 20.4759 24.3158 17.9842C24.4546 16.353 23.9827 14.7395 23.5641 14.4308C23.5641 14.4319 23.9838 14.2021 24.7455 14.272Z" fill="#37474F"/>
<path d="M21.9451 22.5182C22.3415 22.5848 22.809 22.3605 23.3364 21.6298C23.8449 20.9511 24.31 20.2408 24.7289 19.5034C25.0554 18.9415 25.2919 18.5229 25.4051 18.2664C25.605 17.8145 25.9604 17.267 25.9059 16.7795C25.8795 16.3868 25.7781 16.0027 25.6072 15.648C25.5713 15.5754 25.5282 15.5066 25.4784 15.4426C25.4541 15.4106 25.4189 15.3885 25.3794 15.3805C25.34 15.3725 25.299 15.3792 25.2641 15.3993L25.3274 15.6047C25.343 15.8268 25.2164 16.1899 25.0021 16.4731C24.8723 16.6466 24.7233 16.805 24.5579 16.945C24.5594 16.7869 24.5362 16.6295 24.4891 16.4786C24.4113 16.191 24.1693 15.9334 24.0182 15.9712C23.8672 16.0089 23.9616 16.0511 23.9982 16.3554C24.0349 16.6596 23.8528 17.0571 23.9094 17.4891C23.9405 17.7323 23.9372 18.0965 23.8284 18.303C23.6662 18.6084 22.9256 19.3313 22.9256 19.3313C23.2332 17.7767 23.2709 17.4669 23.392 16.8606C23.6929 15.7724 23.503 14.9007 23.1999 14.5132C22.2915 14.6242 21.803 14.9574 21.5731 15.7724C21.24 16.9461 21.0923 18.0898 21.0923 20.3584C21.0934 21.5344 21.4732 22.4405 21.9451 22.5182Z" fill="#E9A5A5"/>
<path d="M22.9266 19.3358C22.4202 19.7089 22.0771 20.0354 21.945 20.5695C21.945 20.5695 21.9072 19.4757 22.9832 19.0493L22.9266 19.3358Z" fill="#F28F8F"/>
<path d="M27.0059 14.0345C27.6509 14.3745 28.1795 14.8997 28.5238 15.5425C28.8847 16.2231 29.2311 17.0648 29.2433 18.4506C29.4499 16.6507 29.4743 14.9117 27.9542 14.009C27.6395 13.9544 27.3171 13.9631 27.0059 14.0345Z" fill="#37474F"/>
</svg>
