<svg width="248" height="204" viewBox="0 0 248 204" fill="none" xmlns="http://www.w3.org/2000/svg">
<path d="M221.95 51.2899C222.1 53.4599 222.1 55.6299 222.1 57.8199C222.1 124.55 171.3 201.51 78.41 201.51V201.47C50.97 201.51 24.1 193.65 1 178.83C4.99 179.31 9 179.55 13.02 179.56C35.76 179.58 57.85 171.95 75.74 157.9C54.13 157.49 35.18 143.4 28.56 122.83C36.13 124.29 43.93 123.99 51.36 121.96C27.8 117.2 10.85 96.4999 10.85 72.4599C10.85 72.2399 10.85 72.0299 10.85 71.8199C17.87 75.7299 25.73 77.8999 33.77 78.1399C11.58 63.3099 4.74 33.7899 18.14 10.7099C43.78 42.2599 81.61 61.4399 122.22 63.4699C118.15 45.9299 123.71 27.5499 136.83 15.2199C157.17 -3.90006 189.16 -2.92006 208.28 17.4099C219.59 15.1799 230.43 11.0299 240.35 5.14994C236.58 16.8399 228.69 26.7699 218.15 33.0799C228.16 31.8999 237.94 29.2199 247.15 25.1299C240.37 35.2899 231.83 44.1399 221.95 51.2899Z" fill="black"/>
</svg>
