<svg width="512" height="512" viewBox="0 0 512 512" fill="none" xmlns="http://www.w3.org/2000/svg">
<g clip-path="url(#clip0_94_111)">
<path d="M406.532 177.485H105.468C96.2349 177.485 88.7419 184.978 88.7419 194.211V367.356L122.205 385.587L247.983 454.196C252.99 456.928 259.011 456.928 264.017 454.196L389.806 385.587L423.258 367.445V194.211C423.258 184.978 415.766 177.485 406.532 177.485Z" fill="#FFDFB3"/>
<path d="M389.807 385.587L423.259 367.445V194.211C423.259 184.978 415.766 177.485 406.533 177.485H256V456.245C258.756 456.245 261.514 455.561 264.017 454.197L389.807 385.587Z" fill="#FFCC99"/>
<path d="M406.532 210.936H105.468C100.219 210.936 95.2748 208.475 92.1168 204.282C88.9588 200.089 87.9469 194.667 89.3839 189.615L131.526 41.9902C138.767 20.2332 155.984 5.19517 177.805 1.09017C199.66 -3.02583 221.133 4.70517 235.344 21.7582C245.58 34.0412 266.422 34.0412 276.658 21.7582C290.868 4.70717 312.331 -3.03583 334.196 1.09217C356.018 5.19817 373.234 20.2352 380.258 41.2952L422.617 189.617C424.054 194.669 423.042 200.093 419.884 204.284C416.726 208.475 411.782 210.936 406.532 210.936Z" fill="#2F3249"/>
<path d="M406.532 210.936C411.781 210.936 416.725 208.475 419.883 204.282C423.041 200.089 424.053 194.667 422.616 189.615L380.257 41.2931C373.233 20.2331 356.018 5.19509 334.195 1.09009C312.33 -3.03691 290.867 4.70509 276.656 21.7581C271.538 27.9001 263.768 30.9711 256 30.9711V210.936H406.532V210.936Z" fill="#1E263C"/>
<path d="M473.436 210.936H38.565C29.331 210.936 21.839 203.444 21.839 194.21C21.839 184.976 29.331 177.484 38.565 177.484H473.436C482.67 177.484 490.162 184.976 490.162 194.21C490.161 203.444 482.671 210.936 473.436 210.936Z" fill="#1E263C"/>
<path d="M473.436 177.485H256V210.937H473.435C482.669 210.937 490.161 203.445 490.161 194.211C490.161 184.977 482.671 177.485 473.436 177.485Z" fill="#131B32"/>
<path d="M423.257 244.388V277.84H373.08C363.847 277.84 356.354 270.347 356.354 261.114C356.354 251.881 363.847 244.388 373.08 244.388H423.257V244.388Z" fill="#1E263C"/>
<path d="M138.92 244.388H88.7419V277.84H138.919C148.153 277.84 155.645 270.348 155.645 261.114C155.646 251.88 148.155 244.388 138.92 244.388Z" fill="#2F3249"/>
<path d="M145.206 330.391C130.749 320.613 122.194 304.116 122.194 286.663V244.388H256V277.84C256 328.79 198.762 366.614 145.206 330.391Z" fill="#2F3249"/>
<path d="M80.0339 324.492C74.2689 321.348 67.2439 321.849 62.0149 325.763C56.7739 329.666 54.2879 336.278 55.6589 342.667L89.1099 498.775C90.7709 506.491 97.5839 511.999 105.468 511.999H239.274V411.344L80.0339 324.492Z" fill="#2F3249"/>
<path d="M449.986 325.764C444.756 321.85 437.732 321.348 431.967 324.493L272.726 411.345V512H406.532C414.415 512 421.228 506.493 422.89 498.777L456.342 342.67C457.713 336.279 455.227 329.667 449.986 325.764Z" fill="#1E263C"/>
<path d="M272.726 411.344V512H239.275V411.344L256 420.465L272.726 411.344Z" fill="#D7EBFF"/>
<path d="M272.726 512V411.344L256 420.465V512H272.726Z" fill="#BDDEFF"/>
<path d="M256 277.84V244.388H389.806V286.663C389.806 304.116 381.25 320.613 366.794 330.391C313.239 366.614 256 328.79 256 277.84Z" fill="#1E263C"/>
</g>
<defs>
<clipPath id="clip0_94_111">
<rect width="512" height="512" fill="white"/>
</clipPath>
</defs>
</svg>
