<svg width="160" height="160" viewBox="0 0 160 160" fill="none" xmlns="http://www.w3.org/2000/svg">
<path d="M154.483 42.1C153.589 38.7948 151.844 35.7815 149.423 33.3603C147.002 30.9391 143.988 29.1944 140.683 28.3C128.583 25 79.8833 25 79.8833 25C79.8833 25 31.1833 25.1 19.0833 28.4C15.778 29.2944 12.7647 31.0391 10.3435 33.4603C7.92232 35.8815 6.17764 38.8948 5.28326 42.2C1.62326 63.7 0.203258 96.46 5.38326 117.1C6.27764 120.405 8.02232 123.419 10.4435 125.84C12.8647 128.261 15.878 130.006 19.1833 130.9C31.2833 134.2 79.9833 134.2 79.9833 134.2C79.9833 134.2 128.683 134.2 140.783 130.9C144.089 130.006 147.102 128.261 149.523 125.84C151.944 123.419 153.689 120.405 154.583 117.1C158.443 95.57 159.633 62.83 154.483 42.1Z" fill="black"/>
<path d="M64.3833 103L104.783 79.6001L64.3833 56.2001V103Z" fill="white"/>
</svg>
