<svg width="64" height="64" viewBox="0 0 64 64"  xmlns="http://www.w3.org/2000/svg">
<style>
        path {
            fill: #fff;
        }
        @media (prefers-color-scheme: dark) {
            path {
                fill: #000;
            }
        }
    </style>

<path d="M59.5221 37.2043C62.4857 40.3615 61.6782 44.9499 61.5 46.5" stroke="#A12568" stroke-width="2"/>
<path d="M4.43567 37.1824C1.51993 40.3838 2.29852 44.4527 2.5 46" stroke="#FEC260" stroke-width="2"/>
<path d="M8 43C27.9786 51.0921 38.4707 50.9073 56 43" stroke="url(#paint0_linear_134_60)" stroke-width="5" stroke-linecap="round"/>
<path d="M12.434 37.304C10.762 37.304 9.926 36.4427 9.926 34.72V12.794C9.926 11.0713 10.7873 10.21 12.51 10.21H25.772C27.0893 10.21 27.748 10.8433 27.748 12.11C27.748 13.4273 27.0893 14.086 25.772 14.086H14.79V21.648H24.974C26.2913 21.648 26.95 22.2813 26.95 23.548C26.95 24.8653 26.2913 25.524 24.974 25.524H14.79V34.72C14.79 36.4427 14.0047 37.304 12.434 37.304ZM44.8416 37.38C43.1443 37.38 41.485 37.19 39.8636 36.81C38.2676 36.43 36.8743 35.86 35.6836 35.1C35.101 34.72 34.7463 34.2513 34.6196 33.694C34.493 33.1367 34.531 32.6173 34.7336 32.136C34.9616 31.6293 35.3036 31.2873 35.7596 31.11C36.241 30.9073 36.7856 30.996 37.3936 31.376C38.5083 32.0347 39.6863 32.516 40.9276 32.82C42.169 33.124 43.4736 33.276 44.8416 33.276C46.843 33.276 48.2996 32.9467 49.2116 32.288C50.1236 31.604 50.5796 30.73 50.5796 29.666C50.5796 28.7793 50.2503 28.0827 49.5916 27.576C48.9583 27.0693 47.8563 26.6513 46.2856 26.322L42.1056 25.448C37.343 24.4347 34.9616 21.99 34.9616 18.114C34.9616 16.442 35.405 14.9853 36.2916 13.744C37.1783 12.5027 38.407 11.54 39.9776 10.856C41.5483 10.172 43.3596 9.83 45.4116 9.83C46.9316 9.83 48.3756 10.02 49.7436 10.4C51.1116 10.78 52.3403 11.3373 53.4296 12.072C53.9363 12.4267 54.2403 12.87 54.3416 13.402C54.443 13.9087 54.3796 14.39 54.1516 14.846C53.9236 15.2767 53.5563 15.5807 53.0496 15.758C52.5683 15.91 51.9983 15.796 51.3396 15.416C50.4023 14.884 49.4523 14.504 48.4896 14.276C47.527 14.048 46.4883 13.934 45.3736 13.934C43.6256 13.934 42.2576 14.3013 41.2696 15.036C40.2816 15.7707 39.7876 16.7333 39.7876 17.924C39.7876 18.836 40.0916 19.5707 40.6996 20.128C41.3076 20.66 42.3463 21.078 43.8156 21.382L47.9576 22.256C50.4656 22.788 52.3276 23.624 53.5436 24.764C54.785 25.904 55.4056 27.424 55.4056 29.324C55.4056 30.92 54.975 32.326 54.1136 33.542C53.2523 34.758 52.0236 35.708 50.4276 36.392C48.857 37.0507 46.995 37.38 44.8416 37.38Z" fill="white"/>
<defs>
<linearGradient id="paint0_linear_134_60" x1="5.41594" y1="41.4225" x2="65.7633" y2="59.069" gradientUnits="userSpaceOnUse">
<stop stop-color="#FEC260"/>
<stop offset="1" stop-color="#A12568"/>
</linearGradient>
</defs>
</svg>
