<svg width="115" height="33" viewBox="0 0 115 33" fill="none" xmlns="http://www.w3.org/2000/svg">
<path d="M3.146 22.176C2.178 22.176 1.694 21.6773 1.694 20.68V7.986C1.694 6.98867 2.19267 6.49 3.19 6.49H10.868C11.6307 6.49 12.012 6.85667 12.012 7.59C12.012 8.35267 11.6307 8.734 10.868 8.734H4.51V13.112H10.406C11.1687 13.112 11.55 13.4787 11.55 14.212C11.55 14.9747 11.1687 15.356 10.406 15.356H4.51V20.68C4.51 21.6773 4.05533 22.176 3.146 22.176ZM14.9767 22.176C14.038 22.176 13.5687 21.7067 13.5687 20.768V12.452C13.5687 11.528 14.016 11.066 14.9107 11.066C15.8053 11.066 16.2527 11.528 16.2527 12.452V13.134C16.7807 11.8727 17.91 11.1687 19.6407 11.022C20.2713 10.9487 20.6233 11.308 20.6967 12.1C20.77 12.8773 20.3887 13.31 19.5527 13.398L19.0687 13.442C17.2647 13.618 16.3627 14.542 16.3627 16.214V20.768C16.3627 21.7067 15.9007 22.176 14.9767 22.176ZM26.918 22.22C25.8034 22.22 24.8354 21.9927 24.014 21.538C23.1927 21.0833 22.5547 20.438 22.1 19.602C21.6454 18.7513 21.418 17.754 21.418 16.61C21.418 15.466 21.6454 14.476 22.1 13.64C22.5547 12.804 23.1927 12.1587 24.014 11.704C24.8354 11.2493 25.8034 11.022 26.918 11.022C28.0327 11.022 29.0007 11.2493 29.822 11.704C30.6434 12.1587 31.2814 12.804 31.736 13.64C32.1907 14.476 32.418 15.466 32.418 16.61C32.418 17.754 32.1907 18.7513 31.736 19.602C31.2814 20.438 30.6434 21.0833 29.822 21.538C29.0007 21.9927 28.0327 22.22 26.918 22.22ZM26.918 20.13C27.7394 20.13 28.3994 19.8367 28.898 19.25C29.3967 18.6487 29.646 17.7687 29.646 16.61C29.646 15.4367 29.3967 14.564 28.898 13.992C28.3994 13.4053 27.7394 13.112 26.918 13.112C26.0967 13.112 25.4367 13.4053 24.938 13.992C24.4394 14.564 24.19 15.4367 24.19 16.61C24.19 17.7687 24.4394 18.6487 24.938 19.25C25.4367 19.8367 26.0967 20.13 26.918 20.13ZM36.0518 22.176C35.1425 22.176 34.6878 21.7067 34.6878 20.768V12.452C34.6878 11.528 35.1351 11.066 36.0298 11.066C36.9245 11.066 37.3718 11.528 37.3718 12.452V12.914C37.7385 12.298 38.2298 11.8287 38.8458 11.506C39.4765 11.1833 40.1805 11.022 40.9578 11.022C43.4951 11.022 44.7638 12.496 44.7638 15.444V20.768C44.7638 21.7067 44.3091 22.176 43.3998 22.176C42.4758 22.176 42.0138 21.7067 42.0138 20.768V15.576C42.0138 14.74 41.8525 14.1313 41.5298 13.75C41.2218 13.3687 40.7378 13.178 40.0778 13.178C39.2711 13.178 38.6258 13.4347 38.1418 13.948C37.6725 14.4467 37.4378 15.114 37.4378 15.95V20.768C37.4378 21.7067 36.9758 22.176 36.0518 22.176ZM52.485 22.22C49.6396 22.22 48.217 20.812 48.217 17.996V13.31H47.073C46.3396 13.31 45.973 12.9653 45.973 12.276C45.973 11.5867 46.3396 11.242 47.073 11.242H48.217V9.24C48.217 8.316 48.679 7.854 49.603 7.854C50.5123 7.854 50.967 8.316 50.967 9.24V11.242H53.299C54.0323 11.242 54.399 11.5867 54.399 12.276C54.399 12.9653 54.0323 13.31 53.299 13.31H50.967V17.842C50.967 18.546 51.121 19.074 51.429 19.426C51.737 19.778 52.2356 19.954 52.925 19.954C53.1743 19.954 53.3943 19.932 53.585 19.888C53.7756 19.844 53.9443 19.8147 54.091 19.8C54.267 19.7853 54.4136 19.844 54.531 19.976C54.6483 20.0933 54.707 20.3427 54.707 20.724C54.707 21.0173 54.6556 21.2813 54.553 21.516C54.465 21.736 54.2963 21.89 54.047 21.978C53.8563 22.0367 53.607 22.088 53.299 22.132C52.991 22.1907 52.7196 22.22 52.485 22.22Z" fill="#222538"/>
<path d="M61.6103 22.22C60.6276 22.22 59.667 22.11 58.7283 21.89C57.8043 21.67 56.9976 21.34 56.3083 20.9C55.971 20.68 55.7656 20.4087 55.6923 20.086C55.619 19.7633 55.641 19.4627 55.7583 19.184C55.8903 18.8907 56.0883 18.6927 56.3523 18.59C56.631 18.4727 56.9463 18.524 57.2983 18.744C57.9436 19.1253 58.6256 19.404 59.3443 19.58C60.063 19.756 60.8183 19.844 61.6103 19.844C62.769 19.844 63.6123 19.6533 64.1403 19.272C64.6683 18.876 64.9323 18.37 64.9323 17.754C64.9323 17.2407 64.7416 16.8373 64.3603 16.544C63.9936 16.2507 63.3556 16.0087 62.4463 15.818L60.0263 15.312C57.269 14.7253 55.8903 13.31 55.8903 11.066C55.8903 10.098 56.147 9.25467 56.6603 8.536C57.1736 7.81733 57.885 7.26 58.7943 6.864C59.7036 6.468 60.7523 6.27 61.9403 6.27C62.8203 6.27 63.6563 6.38 64.4483 6.6C65.2403 6.82 65.9516 7.14267 66.5823 7.568C66.8756 7.77333 67.0516 8.03 67.1103 8.338C67.169 8.63133 67.1323 8.91 67.0003 9.174C66.8683 9.42333 66.6556 9.59933 66.3623 9.702C66.0836 9.79 65.7536 9.724 65.3723 9.504C64.8296 9.196 64.2796 8.976 63.7223 8.844C63.165 8.712 62.5636 8.646 61.9183 8.646C60.9063 8.646 60.1143 8.85867 59.5423 9.284C58.9703 9.70933 58.6843 10.2667 58.6843 10.956C58.6843 11.484 58.8603 11.9093 59.2123 12.232C59.5643 12.54 60.1656 12.782 61.0163 12.958L63.4143 13.464C64.8663 13.772 65.9443 14.256 66.6483 14.916C67.367 15.576 67.7263 16.456 67.7263 17.556C67.7263 18.48 67.477 19.294 66.9783 19.998C66.4796 20.702 65.7683 21.252 64.8443 21.648C63.935 22.0293 62.857 22.22 61.6103 22.22ZM71.2872 22.176C70.3779 22.176 69.9232 21.7067 69.9232 20.768V12.452C69.9232 11.528 70.3706 11.066 71.2652 11.066C72.1599 11.066 72.6072 11.528 72.6072 12.452V12.892C72.9299 12.3053 73.3772 11.8507 73.9492 11.528C74.5212 11.1907 75.1812 11.022 75.9292 11.022C77.5426 11.022 78.5986 11.726 79.0972 13.134C79.4346 12.474 79.9186 11.9607 80.5492 11.594C81.1799 11.2127 81.8986 11.022 82.7052 11.022C85.1252 11.022 86.3352 12.496 86.3352 15.444V20.768C86.3352 21.7067 85.8732 22.176 84.9492 22.176C84.0399 22.176 83.5852 21.7067 83.5852 20.768V15.554C83.5852 14.7327 83.4459 14.1313 83.1672 13.75C82.9032 13.3687 82.4486 13.178 81.8032 13.178C81.0846 13.178 80.5199 13.4347 80.1092 13.948C79.6986 14.4467 79.4932 15.1433 79.4932 16.038V20.768C79.4932 21.7067 79.0386 22.176 78.1292 22.176C77.2052 22.176 76.7432 21.7067 76.7432 20.768V15.554C76.7432 14.7327 76.6039 14.1313 76.3252 13.75C76.0612 13.3687 75.6139 13.178 74.9832 13.178C74.2646 13.178 73.6999 13.4347 73.2892 13.948C72.8786 14.4467 72.6732 15.1433 72.6732 16.038V20.768C72.6732 21.7067 72.2112 22.176 71.2872 22.176ZM90.5362 9.042C90.0229 9.042 89.6195 8.91733 89.3262 8.668C89.0475 8.404 88.9082 8.04467 88.9082 7.59C88.9082 7.12067 89.0475 6.76133 89.3262 6.512C89.6195 6.26267 90.0229 6.138 90.5362 6.138C91.6215 6.138 92.1642 6.622 92.1642 7.59C92.1642 8.558 91.6215 9.042 90.5362 9.042ZM90.5362 22.154C90.0962 22.154 89.7589 22.022 89.5242 21.758C89.2895 21.494 89.1722 21.1273 89.1722 20.658V12.584C89.1722 11.5867 89.6269 11.088 90.5362 11.088C91.4602 11.088 91.9222 11.5867 91.9222 12.584V20.658C91.9222 21.1273 91.8049 21.494 91.5702 21.758C91.3355 22.022 90.9909 22.154 90.5362 22.154ZM98.4536 22.22C96.0043 22.22 94.7796 20.8487 94.7796 18.106V7.7C94.7796 6.776 95.2343 6.314 96.1436 6.314C97.0676 6.314 97.5296 6.776 97.5296 7.7V17.974C97.5296 19.294 98.0796 19.954 99.1796 19.954C99.2969 19.954 99.4069 19.954 99.5096 19.954C99.6123 19.9393 99.7149 19.9247 99.8176 19.91C100.023 19.8807 100.162 19.9393 100.236 20.086C100.309 20.218 100.346 20.4967 100.346 20.922C100.346 21.2887 100.272 21.5747 100.126 21.78C99.9789 21.9853 99.7369 22.11 99.3996 22.154C99.0916 22.198 98.7763 22.22 98.4536 22.22ZM107 22.22C105.782 22.22 104.734 21.9927 103.854 21.538C102.974 21.0833 102.292 20.438 101.808 19.602C101.338 18.766 101.104 17.776 101.104 16.632C101.104 15.5173 101.331 14.542 101.786 13.706C102.255 12.87 102.893 12.2173 103.7 11.748C104.521 11.264 105.452 11.022 106.494 11.022C108.019 11.022 109.222 11.506 110.102 12.474C110.996 13.442 111.444 14.762 111.444 16.434C111.444 16.9767 111.092 17.248 110.388 17.248H103.744C103.949 19.1693 105.049 20.13 107.044 20.13C107.425 20.13 107.85 20.086 108.32 19.998C108.804 19.8953 109.258 19.7267 109.684 19.492C110.065 19.272 110.388 19.206 110.652 19.294C110.916 19.3673 111.099 19.5213 111.202 19.756C111.319 19.9907 111.334 20.2547 111.246 20.548C111.172 20.8267 110.967 21.0687 110.63 21.274C110.116 21.5967 109.522 21.8387 108.848 22C108.188 22.1467 107.572 22.22 107 22.22ZM106.604 12.892C105.797 12.892 105.144 13.1413 104.646 13.64C104.147 14.1387 103.846 14.8133 103.744 15.664H109.156C109.097 14.7693 108.848 14.0873 108.408 13.618C107.982 13.134 107.381 12.892 106.604 12.892Z" fill="url(#paint0_linear_134_47)"/>
<path d="M112 22.5C114.8 24.5 114.5 26.6667 114 27.5" stroke="#A12568"/>
<path d="M56.3271 22C53.5271 24 53.8271 26.1667 54.3271 27" stroke="#FEC260"/>
<path d="M57 26C79.476 34.0921 91.2795 33.9073 111 26" stroke="url(#paint1_linear_134_47)" stroke-width="2" stroke-linecap="round"/>
<defs>
<linearGradient id="paint0_linear_134_47" x1="-6.08331" y1="-7.88772" x2="145.263" y2="12.9496" gradientUnits="userSpaceOnUse">
<stop stop-color="#FEC260"/>
<stop offset="1" stop-color="#A12568"/>
</linearGradient>
<linearGradient id="paint1_linear_134_47" x1="54.0929" y1="24.4225" x2="120.592" y2="46.2986" gradientUnits="userSpaceOnUse">
<stop stop-color="#FEC260"/>
<stop offset="1" stop-color="#A12568"/>
</linearGradient>
</defs>
</svg>
