<svg width="62" height="32" viewBox="0 0 62 32" fill="none" xmlns="http://www.w3.org/2000/svg">
<path d="M59 21.5C61.8 23.5 61.5 25.6667 61 26.5" stroke="#A12568"/>
<path d="M3.32715 21C0.527148 23 0.827148 25.1667 1.32715 26" stroke="#FEC260"/>
<path d="M4 25C26.476 33.0921 38.2795 32.9073 58 25" stroke="url(#paint0_linear_121_90)" stroke-width="2" stroke-linecap="round"/>
<path d="M6.146 22.176C5.178 22.176 4.694 21.6773 4.694 20.68V7.986C4.694 6.98867 5.19267 6.49 6.19 6.49H13.868C14.6307 6.49 15.012 6.85667 15.012 7.59C15.012 8.35267 14.6307 8.734 13.868 8.734H7.51V13.112H13.406C14.1687 13.112 14.55 13.4787 14.55 14.212C14.55 14.9747 14.1687 15.356 13.406 15.356H7.51V20.68C7.51 21.6773 7.05533 22.176 6.146 22.176ZM17.9767 22.176C17.038 22.176 16.5687 21.7067 16.5687 20.768V12.452C16.5687 11.528 17.016 11.066 17.9107 11.066C18.8053 11.066 19.2527 11.528 19.2527 12.452V13.134C19.7807 11.8727 20.91 11.1687 22.6407 11.022C23.2713 10.9487 23.6233 11.308 23.6967 12.1C23.77 12.8773 23.3887 13.31 22.5527 13.398L22.0687 13.442C20.2647 13.618 19.3627 14.542 19.3627 16.214V20.768C19.3627 21.7067 18.9007 22.176 17.9767 22.176ZM29.918 22.22C28.8034 22.22 27.8354 21.9927 27.014 21.538C26.1927 21.0833 25.5547 20.438 25.1 19.602C24.6454 18.7513 24.418 17.754 24.418 16.61C24.418 15.466 24.6454 14.476 25.1 13.64C25.5547 12.804 26.1927 12.1587 27.014 11.704C27.8354 11.2493 28.8034 11.022 29.918 11.022C31.0327 11.022 32.0007 11.2493 32.822 11.704C33.6434 12.1587 34.2814 12.804 34.736 13.64C35.1907 14.476 35.418 15.466 35.418 16.61C35.418 17.754 35.1907 18.7513 34.736 19.602C34.2814 20.438 33.6434 21.0833 32.822 21.538C32.0007 21.9927 31.0327 22.22 29.918 22.22ZM29.918 20.13C30.7394 20.13 31.3994 19.8367 31.898 19.25C32.3967 18.6487 32.646 17.7687 32.646 16.61C32.646 15.4367 32.3967 14.564 31.898 13.992C31.3994 13.4053 30.7394 13.112 29.918 13.112C29.0967 13.112 28.4367 13.4053 27.938 13.992C27.4394 14.564 27.19 15.4367 27.19 16.61C27.19 17.7687 27.4394 18.6487 27.938 19.25C28.4367 19.8367 29.0967 20.13 29.918 20.13ZM39.0518 22.176C38.1425 22.176 37.6878 21.7067 37.6878 20.768V12.452C37.6878 11.528 38.1351 11.066 39.0298 11.066C39.9245 11.066 40.3718 11.528 40.3718 12.452V12.914C40.7385 12.298 41.2298 11.8287 41.8458 11.506C42.4765 11.1833 43.1805 11.022 43.9578 11.022C46.4951 11.022 47.7638 12.496 47.7638 15.444V20.768C47.7638 21.7067 47.3091 22.176 46.3998 22.176C45.4758 22.176 45.0138 21.7067 45.0138 20.768V15.576C45.0138 14.74 44.8525 14.1313 44.5298 13.75C44.2218 13.3687 43.7378 13.178 43.0778 13.178C42.2711 13.178 41.6258 13.4347 41.1418 13.948C40.6725 14.4467 40.4378 15.114 40.4378 15.95V20.768C40.4378 21.7067 39.9758 22.176 39.0518 22.176ZM55.485 22.22C52.6396 22.22 51.217 20.812 51.217 17.996V13.31H50.073C49.3396 13.31 48.973 12.9653 48.973 12.276C48.973 11.5867 49.3396 11.242 50.073 11.242H51.217V9.24C51.217 8.316 51.679 7.854 52.603 7.854C53.5123 7.854 53.967 8.316 53.967 9.24V11.242H56.299C57.0323 11.242 57.399 11.5867 57.399 12.276C57.399 12.9653 57.0323 13.31 56.299 13.31H53.967V17.842C53.967 18.546 54.121 19.074 54.429 19.426C54.737 19.778 55.2356 19.954 55.925 19.954C56.1743 19.954 56.3943 19.932 56.585 19.888C56.7756 19.844 56.9443 19.8147 57.091 19.8C57.267 19.7853 57.4136 19.844 57.531 19.976C57.6483 20.0933 57.707 20.3427 57.707 20.724C57.707 21.0173 57.6556 21.2813 57.553 21.516C57.465 21.736 57.2963 21.89 57.047 21.978C56.8563 22.0367 56.607 22.088 56.299 22.132C55.991 22.1907 55.7196 22.22 55.485 22.22Z" fill="#222538"/>
<defs>
<linearGradient id="paint0_linear_121_90" x1="1.09293" y1="23.4225" x2="67.5923" y2="45.2986" gradientUnits="userSpaceOnUse">
<stop stop-color="#FEC260"/>
<stop offset="1" stop-color="#A12568"/>
</linearGradient>
</defs>
</svg>
